<svg width="73" height="73" viewBox="0 0 73 73" fill="none" xmlns="http://www.w3.org/2000/svg">
<rect width="73" height="73" rx="36.5" fill="#00C9B7"/>
<g clip-path="url(#clip0_1494_1066)">
<path d="M37.0097 31.5453C34.796 31.5453 32.5822 31.5453 30.3685 31.5453C30.1334 31.5453 30.1328 31.545 30.1328 31.3139C30.134 28.5603 30.1349 25.8067 30.1371 23.0531C30.1371 22.9135 30.1237 22.7691 30.2323 22.6534C30.2441 22.6407 30.2493 22.6141 30.246 22.5963C30.2017 22.3582 30.3175 22.1431 30.3673 21.9241C30.3991 21.7842 30.4462 21.6265 30.5253 21.4908C30.5872 21.3851 30.6106 21.2609 30.6585 21.1476C30.754 20.9213 30.8745 20.7119 30.9885 20.4965C31.1071 20.2723 31.2831 20.085 31.3971 19.8699C31.5591 19.5644 31.8327 19.378 32.0384 19.1242C32.2783 18.8284 32.564 18.5765 32.8616 18.3502C32.9881 18.2541 33.1198 18.1369 33.2826 18.065C33.4197 18.0042 33.5632 17.91 33.6861 17.8085C33.7589 17.7483 33.8517 17.7251 33.9248 17.6991C34.1411 17.6217 34.314 17.448 34.5642 17.4378C34.6683 17.4335 34.7835 17.3601 34.8824 17.3139C35.0344 17.2429 35.2131 17.267 35.3471 17.1586C35.369 17.1411 35.4033 17.1338 35.4327 17.1311C35.8349 17.0936 36.2298 16.9994 36.6381 17.0033C37.0928 17.0075 37.5533 16.9782 37.9995 17.0456C38.2519 17.0837 38.5185 17.0951 38.7691 17.2009C38.9113 17.261 39.0806 17.2961 39.2335 17.345C39.3836 17.393 39.5359 17.4441 39.6851 17.4994C39.8774 17.5707 40.0528 17.6788 40.2333 17.7719C40.3822 17.8486 40.5411 17.913 40.6755 18.0308C40.7856 18.1272 40.9242 18.2015 41.0507 18.2837C41.2191 18.3928 41.3641 18.5236 41.513 18.6535C41.631 18.7565 41.7232 18.8834 41.8631 18.9698C41.965 19.0327 42.022 19.1644 42.107 19.2581C42.2298 19.3931 42.3839 19.5058 42.4816 19.656C42.6608 19.9312 42.8632 20.191 43.0206 20.4829C43.111 20.6506 43.2059 20.8201 43.2881 20.9905C43.3506 21.1204 43.4064 21.2621 43.4626 21.3968C43.5247 21.5464 43.512 21.7213 43.6242 21.8506C43.6306 21.8579 43.6358 21.8691 43.6358 21.8781C43.6303 22.1005 43.7823 22.2908 43.7647 22.5159C43.7592 22.5866 43.7717 22.6501 43.8208 22.712C43.8824 22.79 43.876 22.8924 43.8763 22.9881C43.8781 23.5972 43.8806 24.2063 43.8809 24.8154C43.8815 26.9699 43.8809 29.1244 43.8809 31.2791C43.8809 31.4572 43.7939 31.5462 43.62 31.5462C41.4163 31.5462 39.2128 31.5462 37.0091 31.5462L37.0097 31.5453Z" fill="white"/>
<path d="M37.0021 58C35.3692 58 33.7367 58 32.1038 58C31.9386 58 31.856 57.9168 31.856 57.7504C31.8563 57.1764 31.8587 56.6023 31.8566 56.0286C31.8554 55.7648 31.9567 55.5349 32.1002 55.3265C32.1912 55.1944 32.2491 55.0334 32.4017 54.9455C32.5895 54.8373 32.7606 54.711 32.9696 54.6276C33.1704 54.5476 33.3596 54.553 33.5556 54.5503C34.0761 54.5436 34.5969 54.5451 35.1175 54.5503C35.2385 54.5515 35.2858 54.5198 35.2852 54.3902C35.2807 53.3327 35.2813 52.2756 35.2846 51.2181C35.2849 51.1036 35.254 51.055 35.1317 51.0562C34.9788 51.0577 34.8166 51.0864 34.6846 50.9695C34.6749 50.9607 34.6552 50.9592 34.6406 50.9604C34.371 50.9821 34.1265 50.8547 33.8617 50.8287C33.6839 50.8111 33.4934 50.7528 33.3266 50.6601C33.3093 50.6504 33.2887 50.641 33.2699 50.6416C33.0163 50.6486 32.8088 50.4945 32.5767 50.4444C32.3301 50.3909 32.1172 50.2667 31.8854 50.1869C31.6834 50.1175 31.4611 50.0604 31.2897 49.9066C31.2342 49.8567 31.1371 49.8307 31.0752 49.8214C30.8653 49.7893 30.7182 49.6461 30.5447 49.5579C30.3369 49.4525 30.1076 49.3709 29.935 49.2084C29.8583 49.1361 29.7627 49.108 29.6796 49.0582C29.4524 48.9225 29.2349 48.776 29.0259 48.615C28.7453 48.399 28.449 48.2014 28.1811 47.9708C27.7331 47.5856 27.2544 47.227 26.8901 46.7584C26.6884 46.4989 26.4266 46.2946 26.244 46.0279C26.0839 45.7937 25.9031 45.575 25.745 45.3387C25.5824 45.0961 25.4026 44.8592 25.2539 44.6115C25.1059 44.3652 24.95 44.1196 24.8186 43.8625C24.6721 43.5755 24.5059 43.2912 24.4013 42.9927C24.3181 42.7555 24.1901 42.5346 24.1298 42.2827C24.0994 42.1555 24.0218 42.0017 23.9793 41.8663C23.9271 41.6999 23.8638 41.531 23.8092 41.3663C23.7461 41.1757 23.76 40.9621 23.6405 40.7896C23.6296 40.7735 23.6208 40.7527 23.6199 40.7337C23.6144 40.5741 23.5565 40.4267 23.5228 40.2744C23.4157 39.7934 23.3566 39.3028 23.3981 38.8055C23.4075 38.6937 23.4731 38.6082 23.5149 38.5188C23.6447 38.2414 23.8471 38.0118 24.087 37.8172C24.2171 37.7115 24.3806 37.6671 24.5187 37.5858C24.8602 37.3852 25.2157 37.5278 25.5609 37.4885C25.7262 37.6202 25.9604 37.5945 26.1236 37.7607C26.2198 37.8586 26.3657 37.9157 26.4676 38.0278C26.5895 38.1619 26.6465 38.3314 26.7469 38.4749C26.8768 38.6608 26.824 38.8949 26.932 39.0831C26.9417 39.1001 26.9493 39.1227 26.9462 39.1411C26.901 39.4282 27.0087 39.7001 27.0931 39.9539C27.1568 40.1457 27.1346 40.3557 27.2535 40.5457C27.3206 40.653 27.3806 40.8201 27.3849 40.9763C27.3885 41.1113 27.5144 41.1938 27.5414 41.3213C27.5474 41.3503 27.5826 41.376 27.5875 41.4128C27.6233 41.6742 27.7941 41.8754 27.8926 42.1077C27.9882 42.3334 28.1386 42.5232 28.2488 42.7383C28.3276 42.8918 28.4365 43.0365 28.5412 43.1797C28.6843 43.3761 28.8196 43.5785 28.9637 43.7749C29.0696 43.9196 29.2061 44.0332 29.3168 44.1722C29.4597 44.3516 29.5868 44.5553 29.7642 44.6937C30.0327 44.903 30.2693 45.145 30.528 45.3632C30.7664 45.5644 31.0325 45.7269 31.2803 45.9143C31.5815 46.1418 31.9133 46.3206 32.2349 46.5128C32.4123 46.6188 32.6147 46.704 32.8143 46.7835C33.0405 46.8738 33.2753 46.9518 33.4983 47.0566C33.6193 47.1137 33.7516 47.1956 33.9041 47.1874C33.9809 47.1832 34.0537 47.2046 34.1125 47.2617C34.1295 47.2781 34.1571 47.2965 34.1777 47.2944C34.3743 47.2738 34.5514 47.3723 34.724 47.4246C34.9512 47.4935 35.1875 47.4614 35.3962 47.5312C35.7417 47.6467 36.0994 47.5666 36.4349 47.6494C36.6793 47.7098 36.9172 47.7155 37.1613 47.7204C37.4177 47.7252 37.6552 47.5959 37.9154 47.6231C38.0046 47.6325 38.0965 47.6107 38.1872 47.6104C38.4872 47.6101 38.769 47.4596 39.0742 47.5053C39.228 47.3503 39.4515 47.3907 39.6362 47.3336C39.8189 47.2771 39.9972 47.1735 40.2062 47.1717C40.3242 47.1708 40.4501 47.0953 40.5569 47.0288C40.6655 46.9611 40.7947 46.9354 40.9042 46.9043C41.1259 46.8415 41.2909 46.6433 41.5369 46.656C41.5418 46.656 41.5482 46.6545 41.5512 46.6511C41.715 46.4798 41.9346 46.4013 42.1397 46.2992C42.4248 46.1575 42.6738 45.9575 42.9362 45.7831C43.1798 45.6215 43.4176 45.4393 43.6336 45.2336C43.7853 45.0891 43.9321 44.9393 44.1207 44.8275C44.2251 44.7656 44.3316 44.6538 44.4029 44.5199C44.4848 44.3664 44.6267 44.2432 44.7499 44.1142C44.9828 43.8701 45.1921 43.6102 45.3678 43.3205C45.4539 43.1785 45.5716 43.0549 45.6581 42.9105C45.7694 42.7241 45.8865 42.541 45.9935 42.3522C46.12 42.1289 46.2341 41.9011 46.3312 41.6612C46.4103 41.4657 46.4589 41.2485 46.6063 41.0784C46.6724 41.0023 46.6615 40.8793 46.6845 40.7844C46.7273 40.6083 46.8232 40.4539 46.8526 40.2717C46.889 40.0472 46.9196 39.8146 47.0331 39.6082C47.0425 39.591 47.0522 39.5699 47.0504 39.5514C47.027 39.2922 47.0871 39.0411 47.1629 38.8006C47.2227 38.6106 47.2818 38.4133 47.4192 38.2508C47.6294 38.0015 47.8776 37.8015 48.1524 37.6302C48.1979 37.6018 48.2488 37.6036 48.2989 37.6009C48.3644 37.5973 48.4324 37.603 48.4706 37.5317C48.4769 37.5196 48.4927 37.5054 48.5052 37.5045C48.7606 37.4849 49.0172 37.4498 49.2689 37.5305C49.2868 37.5362 49.2993 37.5649 49.316 37.5668C49.5253 37.5864 49.686 37.7018 49.8601 37.8066C50.0321 37.91 50.162 38.0459 50.2757 38.1979C50.3179 38.2544 50.3634 38.3184 50.3958 38.3837C50.5075 38.6079 50.6249 38.8318 50.6182 39.094C50.6155 39.2046 50.6227 39.3158 50.6164 39.4264C50.607 39.588 50.6537 39.7602 50.5296 39.9028C50.5129 39.9218 50.5138 39.9614 50.5163 39.9907C50.5363 40.2445 50.4353 40.4835 50.3773 40.7173C50.3324 40.8989 50.2857 41.098 50.2229 41.2826C50.1683 41.4437 50.1116 41.6186 50.0594 41.7845C50.0133 41.931 50.0051 42.0969 49.8929 42.2322C49.8207 42.3195 49.8383 42.4636 49.7749 42.5772C49.6493 42.8017 49.616 43.0679 49.4604 43.2836C49.4112 43.3516 49.3912 43.444 49.3527 43.5244C49.2341 43.7719 49.1036 44.0105 48.9599 44.245C48.8989 44.3444 48.807 44.439 48.7921 44.5646C48.7836 44.6369 48.7075 44.6462 48.6817 44.7015C48.5922 44.8931 48.4724 45.0746 48.3447 45.2336C48.1845 45.433 48.0602 45.6574 47.8842 45.8499C47.7568 45.9892 47.6519 46.1626 47.516 46.3055C47.1159 46.7261 46.7825 47.2128 46.3093 47.5602C46.0839 47.7255 45.9044 47.9379 45.6796 48.1023C45.3766 48.3237 45.1045 48.5932 44.7838 48.783C44.4581 48.9757 44.1596 49.2117 43.812 49.3724C43.5241 49.5056 43.2572 49.6836 42.9802 49.841C42.9544 49.8555 42.9232 49.8764 42.8974 49.8727C42.736 49.8489 42.6459 49.9957 42.5046 50.0289C42.3371 50.0682 42.1985 50.1848 42.022 50.2262C41.9173 50.251 41.7966 50.2891 41.6998 50.3631C41.5873 50.4492 41.4375 50.454 41.3091 50.4957C41.1299 50.5537 40.9521 50.6308 40.7534 50.6577C40.6121 50.677 40.4237 50.6885 40.2993 50.8148C40.2866 50.8275 40.2614 50.8371 40.2438 50.8347C39.9875 50.7985 39.7594 50.9447 39.5082 50.9453C39.4145 50.9453 39.3247 50.9625 39.238 51.022C39.1397 51.0894 39.0114 51.0562 38.897 51.0553C38.7769 51.0544 38.7281 51.0882 38.7287 51.2181C38.7332 52.2756 38.7332 53.3327 38.7287 54.3902C38.7281 54.5204 38.7763 54.5506 38.897 54.55C39.5085 54.5461 40.1204 54.5436 40.7319 54.5527C40.9858 54.5563 41.2096 54.6714 41.4138 54.8131C41.5054 54.8769 41.6216 54.9427 41.6759 55.0143C41.7626 55.1286 41.8894 55.2337 41.9273 55.3697C41.9613 55.492 42.0502 55.5766 42.0902 55.695C42.1242 55.7954 42.1551 55.8896 42.1554 55.9929C42.1576 56.5921 42.1576 57.1912 42.1579 57.7903C42.1579 57.9979 42.1573 57.9994 41.9455 57.9994C40.2975 57.9997 38.6498 57.9994 37.0018 57.9994L37.0021 58Z" fill="white"/>
<path d="M37.0164 34.0676C39.2256 34.0676 41.4348 34.0676 43.6437 34.0676C43.8803 34.0676 43.8812 34.0679 43.8809 34.2996C43.8797 35.6441 43.8785 36.9883 43.8763 38.3328C43.8763 38.4581 43.8821 38.5862 43.785 38.6887C43.7729 38.7017 43.7647 38.7276 43.7681 38.7449C43.813 38.9781 43.6856 39.182 43.6404 39.3975C43.6073 39.5564 43.5606 39.7274 43.4766 39.8815C43.4192 39.9866 43.4056 40.1135 43.3504 40.2286C43.2491 40.4401 43.1262 40.6413 43.0316 40.8522C42.9591 41.0135 42.8638 41.1649 42.7667 41.296C42.6133 41.503 42.4877 41.7338 42.2978 41.9175C42.1555 42.0553 41.9963 42.1785 41.901 42.3695C41.8658 42.4402 41.7272 42.4807 41.6499 42.5583C41.5031 42.7052 41.3681 42.8698 41.1903 42.9774C40.9182 43.142 40.6801 43.3541 40.388 43.4946C40.22 43.5756 40.0446 43.6584 39.8866 43.7677C39.8074 43.8227 39.704 43.8653 39.6166 43.8819C39.4537 43.9134 39.2954 43.9753 39.1537 44.0354C38.9684 44.1143 38.7551 44.0847 38.5907 44.2101C38.5868 44.2131 38.5813 44.2158 38.5768 44.2155C38.3402 44.1874 38.136 44.3385 37.9085 44.3415C37.3173 44.3493 36.7255 44.3448 36.1343 44.3439C36.023 44.3439 35.9108 44.3424 35.821 44.2581C35.8076 44.2454 35.7828 44.2345 35.7661 44.2376C35.5371 44.2817 35.3363 44.1608 35.1257 44.1152C34.9598 44.0792 34.7884 44.0191 34.6237 43.9545C34.4918 43.9028 34.3638 43.8273 34.2218 43.8058C34.1305 43.7922 34.0695 43.7294 33.9967 43.691C33.7723 43.5726 33.5454 43.4584 33.3288 43.3215C33.1507 43.2091 32.9881 43.0762 32.8107 42.9632C32.6069 42.8336 32.4409 42.6505 32.2799 42.4686C32.2495 42.4341 32.2152 42.426 32.1776 42.413C32.1497 42.4036 32.1094 42.3931 32.1006 42.3722C31.9856 42.103 31.7078 41.9719 31.5579 41.7386C31.3729 41.4507 31.1445 41.193 30.9952 40.8791C30.9188 40.7181 30.8208 40.5637 30.7441 40.4005C30.6773 40.2588 30.6106 40.1171 30.5524 39.9709C30.4899 39.8141 30.4483 39.6482 30.3871 39.4917C30.3149 39.3074 30.2248 39.1068 30.2475 38.8893C30.2572 38.7965 30.256 38.7023 30.1784 38.6222C30.1286 38.5708 30.1368 38.4899 30.1368 38.4192C30.135 37.0245 30.1353 35.6296 30.1289 34.235C30.128 34.0658 30.2211 34.0664 30.3425 34.0664C32.4403 34.0679 34.5382 34.0673 36.6364 34.0673C36.7628 34.0673 36.889 34.0673 37.0155 34.0673L37.0164 34.0676Z" fill="white"/>
<path d="M18.574 27.2564C18.574 25.9476 18.5794 24.6385 18.5703 23.3297C18.5679 22.9798 18.7038 22.7121 18.9422 22.4722C19.1822 22.2305 19.4585 22.1055 19.8046 22.1287C20.0339 22.1444 20.2654 22.1079 20.4826 22.2315C20.7271 22.3707 20.9154 22.5571 21.0619 22.7943C21.1818 22.9889 21.1848 23.2025 21.1851 23.417C21.1863 25.9794 21.1824 28.5417 21.1893 31.104C21.1906 31.5231 21.0601 31.8666 20.7319 32.1255C20.4446 32.3521 20.1158 32.4506 19.7461 32.4074C19.5377 32.3833 19.3557 32.3491 19.1676 32.211C19.0147 32.099 18.8618 31.9923 18.7614 31.8403C18.6574 31.6826 18.5706 31.5122 18.5719 31.3035C18.5785 29.9545 18.5752 28.6051 18.5752 27.2561H18.5743L18.574 27.2564Z" fill="white"/>
<path d="M55.4388 27.2759C55.4388 28.6049 55.4358 29.934 55.4422 31.2634C55.4431 31.4552 55.3991 31.6193 55.2696 31.7555C55.2095 31.8187 55.2095 31.9033 55.1549 31.9743C55.0187 32.1522 54.8055 32.2096 54.6474 32.3498C54.5607 32.4268 54.4233 32.3906 54.3089 32.4039C54.1172 32.4259 53.9255 32.3991 53.7341 32.3849C53.7192 32.3836 53.7013 32.3839 53.6898 32.3761C53.4062 32.1864 53.0907 32.0438 52.9342 31.6978C52.8508 31.5132 52.8308 31.3328 52.8305 31.1461C52.8268 28.5584 52.8359 25.9707 52.8223 23.3829C52.8189 22.7678 53.2291 22.2826 53.7044 22.1714C54.1918 22.0575 54.7045 22.0512 55.0979 22.4941C55.3202 22.7445 55.4455 23.0083 55.4431 23.3491C55.4343 24.6579 55.4395 25.967 55.4395 27.2762H55.4385L55.4388 27.2759Z" fill="white"/>
<path d="M15.6128 27.2788C15.6128 27.8776 15.6098 28.4767 15.6146 29.0755C15.6161 29.2544 15.6025 29.4218 15.4924 29.5735C15.3947 29.7076 15.3395 29.8759 15.1906 29.9683C14.9761 30.1016 14.7911 30.3001 14.5017 30.2726C14.3816 30.2611 14.2584 30.2623 14.1383 30.2726C13.9499 30.2892 13.808 30.2028 13.6536 30.1112C13.4901 30.0143 13.3414 29.9146 13.2265 29.7608C13.0742 29.5571 13.0002 29.3327 13.0005 29.0804C13.0011 27.8776 12.9984 26.6745 13.0017 25.4718C13.0032 24.95 13.2753 24.5998 13.7291 24.366C14.0703 24.1901 14.4398 24.2146 14.7744 24.3062C15.1032 24.3962 15.3486 24.647 15.5115 24.9763C15.6034 25.1621 15.6119 25.3388 15.6128 25.5274C15.6152 26.1111 15.6137 26.6951 15.6137 27.2788H15.6131H15.6128Z" fill="white"/>
<path d="M60.9947 27.2574C60.9947 27.907 60.9917 28.5563 60.9968 29.2059C60.9983 29.3817 60.9237 29.5113 60.8279 29.6521C60.7481 29.7696 60.6989 29.9104 60.5679 29.9817C60.3601 30.0947 60.1896 30.2905 59.9203 30.2721C59.7996 30.2639 59.677 30.2636 59.5566 30.273C59.3549 30.289 59.1902 30.2252 59.0294 30.1026C58.9335 30.0295 58.8231 29.9784 58.7324 29.8896C58.4983 29.6591 58.3969 29.3883 58.3985 29.0614C58.4045 27.833 58.3954 26.6045 58.4045 25.3761C58.4082 24.9054 58.6945 24.5993 59.0807 24.3788C59.4167 24.1869 59.7908 24.2271 60.1402 24.2981C60.4002 24.351 60.611 24.5416 60.7781 24.7649C60.9413 24.9833 61.0065 25.2169 61.0002 25.49C60.9865 26.0788 60.9959 26.668 60.9959 27.2571H60.9944L60.9947 27.2574Z" fill="white"/>
<path d="M26.7451 27.2798C26.7451 27.8786 26.7421 28.4771 26.7469 29.076C26.7485 29.2548 26.7348 29.4222 26.6247 29.5736C26.527 29.708 26.4724 29.8766 26.3232 29.9687C26.1087 30.1014 25.9237 30.3002 25.6346 30.2727C25.5145 30.2612 25.3916 30.2627 25.2712 30.2727C25.0831 30.2887 24.9409 30.2038 24.7862 30.112C24.6136 30.0095 24.454 29.9053 24.3427 29.7355C24.2326 29.5672 24.1477 29.3968 24.1486 29.185C24.1534 27.9372 24.1601 26.6894 24.1446 25.442C24.1395 25.0202 24.3497 24.7407 24.6418 24.4909C24.9239 24.2495 25.2651 24.2522 25.6109 24.2579C26.0599 24.2652 26.3553 24.5229 26.585 24.8592C26.6869 25.0081 26.7545 25.1876 26.7497 25.3933C26.7348 26.0217 26.7442 26.6511 26.7442 27.2798H26.7448H26.7451Z" fill="white"/>
<path d="M49.8618 27.2612C49.8618 27.9057 49.8587 28.5501 49.8639 29.1942C49.8654 29.3746 49.7914 29.5088 49.6931 29.655C49.6136 29.7734 49.5608 29.9142 49.4316 29.9834C49.2278 30.0931 49.0622 30.2879 48.798 30.2716C48.6772 30.2641 48.555 30.2641 48.4343 30.2728C48.2286 30.2876 48.0584 30.2281 47.8925 30.1006C47.7976 30.0275 47.6856 29.9765 47.5968 29.8864C47.372 29.6589 47.2622 29.3958 47.2637 29.0731C47.2698 27.8398 47.2604 26.6062 47.2701 25.3729C47.2737 24.9089 47.5582 24.6043 47.9359 24.3832C48.2695 24.1877 48.6439 24.2291 48.9951 24.2949C49.2596 24.3445 49.4701 24.5378 49.6391 24.7563C49.8038 24.9696 49.8751 25.2034 49.8678 25.479C49.852 26.0727 49.863 26.6669 49.863 27.2609H49.8614L49.8618 27.2612Z" fill="white"/>
</g>
<defs>
<clipPath id="clip0_1494_1066">
<rect width="48" height="41" fill="white" transform="translate(13 17)"/>
</clipPath>
</defs>
</svg>
