<svg width="73" height="73" viewBox="0 0 73 73" fill="none" xmlns="http://www.w3.org/2000/svg">
<rect width="73" height="73" rx="36.5" fill="#F5747B"/>
<path d="M57.6836 22.8698V44.9243C57.5508 45.4606 57.3936 45.989 57.1062 46.4676C56.1088 48.1332 54.5995 48.8573 52.699 48.8581C44.1859 48.8581 35.6727 48.8581 27.1596 48.8581C26.5202 48.8581 25.8809 48.8695 25.2424 48.8546C22.7157 48.7961 20.8684 47.1812 20.4762 44.6876C20.4422 44.4736 20.4369 44.2535 20.4369 44.036C20.4352 37.2811 20.4299 30.5252 20.4378 23.7703C20.4404 21.0478 22.4982 19.0032 25.2136 19.0023C34.4962 18.9997 43.7797 18.9979 53.0623 19.0049C54.8031 19.0058 56.114 19.8102 57.0503 21.2557C57.37 21.7501 57.5342 22.3082 57.6836 22.8706V22.8698ZM24.3192 41.0463C24.438 40.9328 24.5516 40.8289 24.659 40.7206C26.1691 39.2113 27.6749 37.6977 29.1903 36.1928C30.6646 34.7281 32.6254 34.7289 34.1111 36.1884C34.691 36.7579 35.2771 37.3239 35.8334 37.9169C36.1059 38.2077 36.2597 38.2261 36.5313 37.8968C38.6554 35.3194 40.7962 32.7542 42.9386 30.1916C44.447 28.3871 46.7458 28.3836 48.2778 30.1732C50.0342 32.2249 51.7924 34.2765 53.5523 36.3255C53.637 36.4242 53.6947 36.5806 53.9078 36.5692V36.0784C53.9078 32.0843 53.9078 28.0901 53.9078 24.096C53.9078 23.0549 53.6641 22.8112 52.6274 22.8112C43.6077 22.8112 34.5879 22.8112 25.5691 22.8112C25.4241 22.8112 25.2782 22.8078 25.1333 22.8165C24.6878 22.8444 24.4005 23.0776 24.2974 23.51C24.2546 23.6908 24.2459 23.8829 24.2459 24.0707C24.2433 29.5758 24.2433 35.0801 24.2459 40.5852C24.2459 40.724 24.2022 40.8725 24.3192 41.0481V41.0463Z" fill="white"/>
<path d="M17.7052 32.0868C17.8117 32.2545 17.7672 32.4458 17.7672 32.6248C17.7715 36.6635 17.7488 40.7021 17.7811 44.7408C17.8065 47.8379 19.9647 50.5341 22.9535 51.301C23.6033 51.4678 24.2654 51.5255 24.9379 51.5246C33.5969 51.5202 42.255 51.5211 50.914 51.522C51.7368 51.522 51.7411 51.5237 51.5009 52.2914C51.0075 53.8714 50.5157 55.4523 50.0118 57.0288C49.3244 59.1774 47.1784 60.429 44.994 59.8648C40.7912 58.78 36.6032 57.6376 32.4099 56.5161C27.0943 55.0942 21.7814 53.6653 16.4649 52.2495C14.6412 51.7639 13.463 50.6582 13.0778 48.7856C12.9477 48.1532 12.9826 47.5121 13.1687 46.8885C14.6168 42.0481 16.0649 37.2076 17.5182 32.3689C17.5479 32.2702 17.5296 32.1261 17.7052 32.0859V32.0868Z" fill="white"/>
<path d="M33.561 28.342C33.5549 30.4033 31.8291 32.1221 29.7783 32.1108C27.7153 32.0985 26.013 30.3849 26.0156 28.3228C26.0182 26.2283 27.7118 24.5724 29.8412 24.5811C31.8928 24.5898 33.5671 26.2825 33.561 28.342Z" fill="white"/>
</svg>
