<svg width="149" height="37" viewBox="0 0 149 37" fill="none" xmlns="http://www.w3.org/2000/svg">
<g clip-path="url(#clip0_1267_1370)">
<path d="M59.1891 24.8C58.8291 25.1 58.4591 25.39 58.0291 25.63C57.2691 26.06 56.2091 26.46 54.8891 26.46C51.0891 26.46 47.7891 23.19 47.7891 18.7C47.7891 14.21 51.0891 10.94 54.8891 10.94C56.1091 10.94 57.0991 11.34 57.7891 11.7C58.1891 11.93 58.5491 12.16 58.8491 12.43V5.5H62.6491V26.29H59.8391L59.1791 24.8H59.1891ZM59.1891 18.69C59.1891 16.18 57.5391 14.56 55.3891 14.56C53.2391 14.56 51.5891 16.18 51.5891 18.69C51.5891 21.2 53.2391 22.82 55.3891 22.82C57.5391 22.82 59.1891 21.2 59.1891 18.69Z" fill="#34196A"/>
<path d="M66.1191 7.15C66.1191 5.99 67.1091 5 68.2691 5C69.4291 5 70.4191 5.99 70.4191 7.15C70.4191 8.31 69.4291 9.3 68.2691 9.3C67.1091 9.3 66.1191 8.31 66.1191 7.15ZM66.2891 11.11H70.0891V26.29H66.2891V11.11Z" fill="#34196A"/>
<path d="M84.2691 24.8C83.9091 25.1 83.5391 25.39 83.1091 25.63C82.3491 26.06 81.2891 26.46 79.9691 26.46C76.1691 26.46 72.8691 23.19 72.8691 18.7C72.8691 14.21 76.1691 10.94 79.9691 10.94C81.1891 10.94 82.1791 11.34 82.8691 11.7C83.2691 11.93 83.6291 12.16 83.9291 12.43V5.5H87.7291V26.29H84.9191L84.2591 24.8H84.2691ZM84.2691 18.69C84.2691 16.18 82.6191 14.56 80.4691 14.56C78.3191 14.56 76.6691 16.18 76.6691 18.69C76.6691 21.2 78.3191 22.82 80.4691 22.82C82.6191 22.82 84.2691 21.2 84.2691 18.69Z" fill="#34196A"/>
<path d="M100.109 24.8002C99.7495 25.1002 99.3794 25.3902 98.9494 25.6302C98.1894 26.0602 97.1394 26.4602 95.8094 26.4602C92.5094 26.4602 90.6895 24.6802 90.6895 22.1702C90.6895 19.1702 92.8394 17.0502 99.7694 17.0502C99.7694 15.3702 98.7795 14.4102 97.2895 14.4102C96.2695 14.4102 95.7394 14.8402 95.3794 15.2402C95.1794 15.4702 95.0495 15.7702 94.9795 16.0702H91.1795C91.5395 13.3002 93.8195 10.9502 97.6195 10.9502C101.049 10.9502 103.559 13.4602 103.559 16.8902V26.3002H100.749L100.089 24.8102L100.109 24.8002ZM99.7794 19.6802C95.3194 19.6802 94.4995 20.5102 94.4995 21.8302C94.4995 22.6602 95.3295 23.4802 96.4795 23.4802C98.4595 23.4802 99.7794 22.1902 99.7794 20.3402V19.6802Z" fill="#34196A"/>
<path d="M120.899 20.6799C120.209 23.6799 117.429 26.4599 113.799 26.4599C109.709 26.4599 106.209 22.9899 106.209 18.6999C106.209 14.4099 109.709 10.9399 113.799 10.9399C117.429 10.9399 120.199 13.7099 120.899 16.7199H117.099C116.929 16.3199 116.669 15.9599 116.369 15.6599C115.839 15.1299 115.019 14.5699 113.799 14.5699C111.649 14.5699 109.999 16.1899 109.999 18.6999C109.999 21.2099 111.649 22.8299 113.799 22.8299C115.019 22.8299 115.849 22.2999 116.369 21.7699C116.669 21.4699 116.929 21.1099 117.099 20.6799H120.899Z" fill="#34196A"/>
<path d="M124.689 14.57H122.379V11.43H123.369C124.589 11.43 125.179 10.84 125.179 9.60996V7.45996H128.479V11.09H131.779V14.56H128.479V20.83C128.479 22.15 129.309 22.98 130.629 22.98C130.989 22.98 131.189 22.95 131.359 22.91L131.619 22.81V26.11C131.449 26.18 131.289 26.24 131.089 26.28C130.729 26.38 130.299 26.45 129.799 26.45C126.799 26.45 124.679 24.3 124.679 21V14.56L124.689 14.57Z" fill="#34196A"/>
<path d="M148.95 18.6999C148.95 22.9899 145.45 26.4599 141.36 26.4599C137.27 26.4599 133.77 22.9899 133.77 18.6999C133.77 14.4099 137.27 10.9399 141.36 10.9399C145.45 10.9399 148.95 14.4099 148.95 18.6999ZM137.56 18.6999C137.56 21.2099 139.21 22.8299 141.36 22.8299C143.51 22.8299 145.16 21.2099 145.16 18.6999C145.16 16.1899 143.51 14.5699 141.36 14.5699C139.21 14.5699 137.56 16.1899 137.56 18.6999Z" fill="#34196A"/>
<path d="M19.8002 10.6401H9.16016V20.6901H19.8002V10.6401Z" fill="#FF6CFF"/>
<path d="M19.57 0.0600586V10.7801C23.03 11.4501 25.66 14.4901 25.66 18.1501C25.66 19.0401 25.49 19.9001 25.21 20.6901C24.32 23.1501 22.19 25.0101 19.58 25.5101C19.12 25.6001 18.65 25.6501 18.16 25.6501H10.65V20.6901H0V36.3001H18.15C18.63 36.3001 19.1 36.2801 19.57 36.2401C28.08 35.5801 34.95 29.0501 36.12 20.6901C36.24 19.8601 36.3 19.0101 36.3 18.1501C36.3 8.60006 28.93 0.790059 19.57 0.0600586Z" fill="#EFE000"/>
<path d="M10.64 0H0V10.64H10.64V0Z" fill="#34196A"/>
<path d="M19.8002 10.6401H9.16016V20.6901H19.8002V10.6401Z" fill="#FF6CFF"/>
<path d="M19.57 0.0600586V10.7801C23.03 11.4501 25.66 14.4901 25.66 18.1501C25.66 19.0401 25.49 19.9001 25.21 20.6901C24.32 23.1501 22.19 25.0101 19.58 25.5101C19.12 25.6001 18.65 25.6501 18.16 25.6501H10.65V20.6901H0V36.3001H18.15C18.63 36.3001 19.1 36.2801 19.57 36.2401C28.08 35.5801 34.95 29.0501 36.12 20.6901C36.24 19.8601 36.3 19.0101 36.3 18.1501C36.3 8.60006 28.93 0.790059 19.57 0.0600586Z" fill="#EFE000"/>
<path d="M10.64 0H0V10.64H10.64V0Z" fill="#34196A"/>
</g>
<defs>
<clipPath id="clip0_1267_1370">
<rect width="148.95" height="36.3" fill="white"/>
</clipPath>
</defs>
</svg>
