<svg width="607" height="511" viewBox="0 0 607 511" fill="none" xmlns="http://www.w3.org/2000/svg">
<g filter="url(#filter0_i_1494_1050)">
<rect x="104.355" y="126.156" width="384.467" height="260.393" rx="6" fill="url(#paint0_linear_1494_1050)"/>
</g>
<path fill-rule="evenodd" clip-rule="evenodd" d="M151.665 67.5257C145.893 61.888 137.866 59.2116 129.878 60.2616C122.1 61.3596 115.19 65.8159 110.966 72.4584C108.555 76.1829 107.086 80.4413 106.687 84.8643L107.755 83.7913C97.87 82.934 87.9254 84.4935 78.7732 88.336C71.0874 92.0207 65.658 99.2122 64.2057 107.631C63.4484 112.1 64.3934 116.691 66.8534 120.493L67.5645 118.742C55.4971 121.813 45.4748 130.218 40.3233 141.587C38.016 147.354 37.6118 153.71 39.1699 159.725C40.6907 165.25 44.2171 170.005 49.056 173.055C54.2136 176.464 60.6203 177.382 66.5234 175.559L64.8869 174.627C68.4193 185.109 77.453 192.764 88.3468 194.506C100.635 196.952 113.386 195.245 124.604 189.651C131.313 186.487 137.406 182.149 142.598 176.841L141.625 177.245C148.45 177.668 155.294 176.822 161.812 174.749C167.84 172.945 173.56 170.233 178.776 166.705C183.605 163.515 187.651 159.269 190.611 154.286C193.298 149.593 194.479 144.183 193.993 138.793C193.602 132.824 190.675 127.31 185.957 123.651V126.104C192.592 121.026 196.253 112.955 195.709 104.602C195.072 98.1776 191.902 92.2752 186.905 88.2073C181.907 84.1394 175.495 82.2435 169.097 82.9411L170.097 85.3636C174.602 81.0316 175.833 74.2912 173.15 68.6391C170.332 63.1425 164.148 60.2733 158.147 61.6787C154.841 62.3345 151.892 64.192 149.867 66.8948C149.499 67.5376 149.713 68.3579 150.348 68.7369C150.99 69.0933 151.798 68.8809 152.184 68.2545C155.337 64.5463 160.446 63.1758 165.024 64.8097C169.646 66.6185 172.402 71.3974 171.662 76.3181C171.391 79.0284 170.119 81.5391 168.096 83.3561C167.705 83.7664 167.592 84.3698 167.809 84.8944C168.025 85.419 168.53 85.7658 169.096 85.7786C176.516 84.9335 183.856 87.9232 188.588 93.7174C193.099 99.4829 194.251 107.204 191.62 114.042C190.272 117.887 187.801 121.235 184.528 123.651C184.154 123.877 183.903 124.262 183.848 124.697C183.792 125.131 183.937 125.567 184.241 125.881C192.074 132.863 193.648 144.536 187.948 153.355C184.951 158.199 180.868 162.275 176.024 165.258C170.699 168.659 164.88 171.21 158.774 172.819C155.474 173.723 152.095 174.303 148.683 174.55C147.028 174.658 145.367 174.648 143.711 174.594C142.9 174.464 142.075 174.444 141.258 174.533C140.543 174.913 139.922 175.45 139.442 176.105C135.144 180.28 130.246 183.784 124.911 186.5C114.758 191.927 103.169 194.038 91.7614 192.539C81.9548 191.629 73.248 185.871 68.5514 177.188C68.0929 176.131 67.725 175.036 67.4518 173.915C67.2507 173.209 66.5225 172.795 65.815 172.984C55.8971 175.773 45.5192 170.387 42.0597 160.656C40.2284 155.246 40.2343 149.381 42.0765 143.975C43.902 138.581 47.1523 133.785 51.481 130.098C56.3595 125.94 62.0542 122.855 68.1965 121.043C68.5502 120.94 68.8376 120.681 68.9762 120.339C69.1149 119.996 69.0896 119.609 68.9076 119.288C65.1258 112.737 65.6812 104.54 70.312 98.5624C75.5969 91.751 83.4737 87.458 92.0469 86.7165C97.2509 86.0021 102.507 85.7402 107.756 85.9338C108.34 85.9216 108.811 85.4501 108.824 84.8643C109.554 77.6491 113.298 71.0823 119.129 66.7935C125.069 62.5517 132.55 61.0996 139.639 62.8123C143.759 63.7437 147.602 65.6359 150.857 68.3354C151.084 68.5371 151.427 68.527 151.642 68.3123C151.856 68.0975 151.866 67.7527 151.665 67.5257H151.665Z" fill="#F9A11D"/>
<path fill-rule="evenodd" clip-rule="evenodd" d="M335.512 50.109C326.937 54.2142 321.162 62.5651 320.327 72.0671C320.316 72.3911 320.051 72.6488 319.728 72.6488C319.405 72.6488 319.141 72.3918 319.13 72.0677C318.911 69.8507 319.089 67.6121 319.657 65.4584C322.878 56.333 330.072 49.1837 339.193 46.0437C341.919 44.8223 344.793 44.0022 347.726 43.5983C347.339 44.3582 346.996 45.1438 346.702 45.951C342.781 46.7257 339.002 48.1275 335.512 50.109ZM349.391 45.5211C348.489 45.6317 347.592 45.7752 346.702 45.951C346.519 46.4523 346.355 46.962 346.21 47.4792C344.94 52.2111 346.276 57.2644 349.718 60.7396C352.891 63.4426 357.325 64.0825 361.127 62.3862C365.067 60.6078 367.025 56.122 365.656 52.0081C364.007 47.2452 359.738 43.8898 354.737 43.4264C353.354 43.3047 351.97 43.2755 350.592 43.3373C350.638 43.2684 350.686 43.1998 350.734 43.1315C353.856 38.9251 358.084 35.6753 362.943 33.7469C373.533 29.6144 384.798 27.5047 396.159 27.5263C397.817 27.4381 399.475 27.3618 401.134 27.2855C405.212 27.0978 409.29 26.9102 413.36 26.5461C418.581 26.3702 423.707 25.0912 428.404 22.7926C429.347 22.2993 430.224 21.7085 431.022 21.035C431.15 21.0431 431.279 21.0502 431.407 21.0562C436.273 21.6622 441.203 21.517 446.026 20.6258C455.653 18.9097 464.558 14.3649 471.612 7.56631C471.691 7.48857 471.769 7.41058 471.847 7.33232C470.787 9.30635 469.855 11.3527 469.058 13.4583C468.517 14.82 470.714 15.455 471.227 14.0709C472.749 10.1607 474.594 6.39047 476.741 2.80119C476.933 2.43124 476.848 1.98404 476.556 1.71322C476.603 1.49214 476.584 1.25743 476.494 1.03999C476.324 0.628465 475.93 0.354786 475.487 0.340061L460.27 0.768145C459.591 0.790486 459.052 1.34992 459.052 2.0324C459.052 2.71488 459.591 3.27432 460.27 3.29666L473.055 2.69351C467.202 9.50881 459.505 14.5015 450.875 17.0503C446.215 18.4863 441.361 19.1919 436.487 19.1422C435.308 19.1751 434.132 19.1444 432.962 19.0511C434.517 17.1216 435.574 14.7979 435.986 12.2834C436.853 8.09987 435.074 3.81081 431.504 1.48365C429.064 0.227378 426.298 -0.247797 423.581 0.122121C421.115 0.240313 418.746 1.12521 416.803 2.65436C415.149 4.40725 414.265 6.75476 414.353 9.16847C414.44 11.5822 415.49 13.8592 417.267 15.4871C420.258 18.0212 423.813 19.7568 427.602 20.5647C425.493 21.9646 423.075 22.89 420.512 23.2377C415.094 24.2547 409.602 24.8187 404.091 24.9239C402.5 25.0086 400.908 25.0843 399.316 25.1599C395.113 25.3595 390.91 25.5591 386.719 25.9268C375.496 26.2702 364.561 29.5777 355.016 35.5162C351.9 37.5317 349.394 40.3282 347.726 43.5983C348.676 43.4675 349.632 43.3803 350.592 43.3373C350.12 44.033 349.72 44.7645 349.391 45.5211ZM429.966 18.6728C430.957 18.8447 431.957 18.971 432.962 19.0511C432.382 19.7708 431.733 20.4356 431.022 21.035C429.867 20.9618 428.725 20.8039 427.602 20.5647C428.443 20.0072 429.234 19.3743 429.966 18.6728ZM429.966 18.6728C427.188 18.1915 424.475 17.3529 421.895 16.171C419.601 15.1047 417.825 13.1655 416.959 10.7819C416.12 8.60933 416.636 6.1446 418.275 4.49516C420.251 3.02219 422.688 2.31234 425.142 2.4954C427.611 2.32751 430.039 3.19309 431.849 4.88663C434.199 8.04818 434.426 12.3184 432.425 15.7131C431.713 16.7997 430.886 17.7906 429.966 18.6728ZM475.154 1.9961L474.524 0.894571C474.048 1.50744 473.559 2.10722 473.055 2.69351L474.722 2.61485C474.864 2.40755 475.008 2.20129 475.154 1.9961ZM349.391 45.5211C349.56 45.5004 349.729 45.4808 349.898 45.4624C355.027 44.4483 360.248 46.7095 363.033 51.1509C364.113 53.0605 364.259 55.3624 363.429 57.3942C362.6 59.0441 361.097 60.2504 359.311 60.6996C355.428 61.859 351.277 60.0434 349.478 56.3984C347.899 52.9107 347.901 48.9564 349.391 45.5211Z" fill="#FFACE0"/>
<g filter="url(#filter1_dd_1494_1050)">
<path d="M412.468 430.116L387.535 494.857C386.867 496.593 384.862 497.394 383.176 496.593L341.207 476.643C341.207 476.643 336.857 480.053 333.29 474.639L296.801 470.869L317.909 403.15L358.973 409.036L410.741 426.418C412.273 426.932 413.064 428.617 412.478 430.116H412.468Z" fill="#2F2F2F"/>
<path d="M359.49 412.114C359.49 412.114 353.198 396.797 341.199 383L337.374 401.05C337.374 401.05 325.407 397.598 314.303 396.006L292.999 462.318V471.235L338.876 476.772L384.495 495.15L412.193 426.054L404.009 422.623L406.919 412.412C406.919 412.412 387.734 401.8 359.49 412.114Z" fill="#EBDC00"/>
<path d="M359.492 412.114L338.878 476.772L325.419 451.521L337.377 401.05" stroke="#2F2F2F" stroke-linecap="round" stroke-linejoin="round"/>
<path d="M404.01 422.623L386.449 484.302C386.449 484.302 367.161 472.642 338.876 476.771C338.876 476.771 362.215 477.46 383.889 488.287" stroke="#2F2F2F" stroke-linecap="round" stroke-linejoin="round"/>
<path d="M382.326 491.144C376.291 488.432 370.245 485.73 364.21 483.028" stroke="#2F2F2F" stroke-linecap="round" stroke-linejoin="round"/>
<path d="M339.203 476.679C326.156 468.04 310.312 463.684 294.674 464.444" stroke="#2F2F2F" stroke-linecap="round" stroke-linejoin="round"/>
<path d="M331.238 475.19C321.954 471.553 312.217 469.067 302.327 467.793" stroke="#2F2F2F" stroke-linecap="round" stroke-linejoin="round"/>
<path d="M316.08 468.256L311.104 467.105" stroke="#2F2F2F" stroke-linecap="round" stroke-linejoin="round"/>
<path d="M345.732 397.732C344.797 396.478 343.83 395.256 342.823 394.054" stroke="#2F2F2F" stroke-linecap="round" stroke-linejoin="round"/>
<path d="M355.256 414.6C353.652 410.676 351.719 406.885 349.488 403.28" stroke="#2F2F2F" stroke-linecap="round" stroke-linejoin="round"/>
<path d="M352.592 423.372C349.548 416.12 345.539 409.268 340.706 403.104" stroke="#2F2F2F" stroke-linecap="round" stroke-linejoin="round"/>
<path d="M344.459 421.226C342.66 418.103 340.706 415.062 338.598 412.134" stroke="#2F2F2F" stroke-linecap="round" stroke-linejoin="round"/>
<path d="M349.92 432.136C349.2 430.472 348.45 428.828 347.648 427.205" stroke="#2F2F2F" stroke-linecap="round" stroke-linejoin="round"/>
<path d="M347.256 440.908C344.788 435.33 341.94 429.906 338.743 424.718" stroke="#2F2F2F" stroke-linecap="round" stroke-linejoin="round"/>
<path d="M344.592 449.681C341.548 442.994 338.125 436.46 334.372 430.204" stroke="#2F2F2F" stroke-linecap="round" stroke-linejoin="round"/>
<path d="M341.922 458.455C339.588 453.473 337.151 448.542 334.601 443.662" stroke="#2F2F2F" stroke-linecap="round" stroke-linejoin="round"/>
<path d="M333.398 455.045C332.309 452.785 331.229 450.535 330.139 448.275" stroke="#2F2F2F" stroke-linecap="round" stroke-linejoin="round"/>
<path d="M339.26 467.217L336.33 461.125" stroke="#2F2F2F" stroke-linecap="round" stroke-linejoin="round"/>
<path d="M400.16 416.213C390.095 412.894 379.093 412.473 368.791 414.97" stroke="#2F2F2F" stroke-linecap="round" stroke-linejoin="round"/>
<path d="M374.271 419.869C369.542 420.301 364.874 421.297 360.391 422.869" stroke="#2F2F2F" stroke-linecap="round" stroke-linejoin="round"/>
<path d="M398.35 422.685C392.787 420.794 386.917 419.777 381.046 419.644" stroke="#2F2F2F" stroke-linecap="round" stroke-linejoin="round"/>
<path d="M396.551 429.156C386.053 425.509 374.528 424.882 363.691 427.338" stroke="#2F2F2F" stroke-linecap="round" stroke-linejoin="round"/>
<path d="M382.826 432.711C374.046 431.489 365.008 432.126 356.516 434.694" stroke="#2F2F2F" stroke-linecap="round" stroke-linejoin="round"/>
<path d="M394.742 435.628C393.025 435.022 391.277 434.488 389.519 434.036" stroke="#2F2F2F" stroke-linecap="round" stroke-linejoin="round"/>
<path d="M368.041 438.412C363.486 438.659 358.962 439.378 354.572 440.611" stroke="#2F2F2F" stroke-linecap="round" stroke-linejoin="round"/>
<path d="M392.939 442.1C386.935 439.912 380.581 438.669 374.196 438.392" stroke="#2F2F2F" stroke-linecap="round" stroke-linejoin="round"/>
<path d="M355.982 445.758C354.862 445.984 353.751 446.231 352.641 446.518" stroke="#2F2F2F" stroke-linecap="round" stroke-linejoin="round"/>
<path d="M378.188 445.244C373.54 444.555 368.821 444.36 364.133 444.679" stroke="#2F2F2F" stroke-linecap="round" stroke-linejoin="round"/>
<path d="M391.135 448.573C389.15 447.833 387.135 447.196 385.089 446.662" stroke="#2F2F2F" stroke-linecap="round" stroke-linejoin="round"/>
<path d="M363.424 450.751C359.147 450.895 354.87 451.46 350.695 452.435" stroke="#2F2F2F" stroke-linecap="round" stroke-linejoin="round"/>
<path d="M389.332 455.034C383.204 452.702 376.727 451.295 370.188 450.863" stroke="#2F2F2F" stroke-linecap="round" stroke-linejoin="round"/>
<path d="M387.535 461.506C377.809 457.715 367.219 456.236 356.824 457.14" stroke="#2F2F2F" stroke-linecap="round" stroke-linejoin="round"/>
<path d="M363.805 463.15C358.129 462.831 352.402 463.191 346.82 464.259" stroke="#2F2F2F" stroke-linecap="round" stroke-linejoin="round"/>
<path d="M385.725 467.978C381.067 466.118 376.214 464.783 371.269 463.971" stroke="#2F2F2F" stroke-linecap="round" stroke-linejoin="round"/>
<path d="M383.926 474.45C374.816 470.741 364.946 468.964 355.117 469.19" stroke="#2F2F2F" stroke-linecap="round" stroke-linejoin="round"/>
</g>
<g filter="url(#filter2_dd_1494_1050)">
<path d="M69.4505 112.082L77.1514 111.959C77.9431 112.576 78.7347 113.202 79.5162 113.819C81.7987 114.075 83.6905 113.983 85.9833 114.24C87.0011 113.418 88.019 112.596 89.0369 111.774L150.49 110.809L157.862 136.111C157.378 137.107 156.895 138.104 156.412 139.1C157.234 139.254 158.047 139.419 158.869 139.573L165.018 160.694L160.679 165.029L79.2386 167.022L66.4277 115.103L69.4402 112.093L69.4505 112.082Z" fill="white"/>
<path d="M124.785 120.999L125.258 129.012C122.605 127.101 119.963 125.191 117.31 123.28" stroke="#2F2F2F" stroke-linecap="round" stroke-linejoin="round"/>
<path d="M119.348 127.995C117.343 126.269 115.328 124.533 113.323 122.807" stroke="#2F2F2F" stroke-linecap="round" stroke-linejoin="round"/>
<path d="M96.1219 125.355C95.5256 124.369 94.9292 123.393 94.3329 122.407C97.4585 122.623 100.584 122.828 103.71 123.044C104.244 124.831 104.368 126.383 104.902 128.17C102.959 127.4 101.016 126.64 99.0624 125.869C99.4428 127.061 99.8232 128.252 100.204 129.434" stroke="#2F2F2F" stroke-linecap="round" stroke-linejoin="round"/>
<path d="M80.6851 121.986C82.361 122.274 84.0267 122.572 85.7026 122.859C85.8362 124.575 85.9699 126.301 86.1035 128.016C84.3865 127.215 82.6695 126.414 80.9627 125.612" stroke="#2F2F2F" stroke-linecap="round" stroke-linejoin="round"/>
<path d="M143.948 120.66C144.575 123.177 145.213 125.694 145.84 128.211C142.221 126.824 138.602 125.437 134.983 124.05C135.312 123.454 135.846 122.838 136.175 122.242" stroke="#2F2F2F" stroke-linecap="round" stroke-linejoin="round"/>
<path d="M138.428 127.821C138.212 128.417 137.996 129.012 137.79 129.598" stroke="#2F2F2F" stroke-linecap="round" stroke-linejoin="round"/>
<path d="M145.915 140.169C146.429 142.295 146.933 144.411 147.447 146.538" stroke="#2F2F2F" stroke-linecap="round" stroke-linejoin="round"/>
<path d="M144.404 143.302C142.8 143.323 141.206 143.343 139.602 143.364C139.911 144.946 140.219 146.528 140.528 148.11C141.864 148.202 143.191 148.305 144.527 148.398C144.219 147.268 143.9 146.138 143.592 144.997" stroke="#2F2F2F" stroke-linecap="round" stroke-linejoin="round"/>
<path d="M125.724 139.266C126.722 142.091 127.719 144.906 128.727 147.731C125.313 146.251 121.9 144.762 118.486 143.282C120.429 143.098 122.373 142.923 124.316 142.738C123.771 142.07 123.216 141.402 122.671 140.745" stroke="#2F2F2F" stroke-linecap="round" stroke-linejoin="round"/>
<path d="M115.318 145.152C116.552 146.252 117.786 147.361 119.02 148.46" stroke="#2F2F2F" stroke-linecap="round" stroke-linejoin="round"/>
<path d="M104.36 139.542L105.008 147.011C102.643 145.018 100.278 143.014 97.9033 141.022C97.4303 142.891 96.9471 144.761 96.4741 146.631" stroke="#2F2F2F" stroke-linecap="round" stroke-linejoin="round"/>
<path d="M99.7324 145.654C99.5885 146.969 99.4548 148.274 99.3109 149.589C96.6788 149.394 94.0467 149.188 91.4146 148.993" stroke="#2F2F2F" stroke-linecap="round" stroke-linejoin="round"/>
<path d="M89.6289 143.867C88.9503 143.312 88.2717 142.768 87.5931 142.213" stroke="#2F2F2F" stroke-linecap="round" stroke-linejoin="round"/>
<path d="M165.018 160.694L83.9167 161.372L69.4505 112.083" stroke="#2F2F2F" stroke-linecap="round" stroke-linejoin="round"/>
</g>
<g filter="url(#filter3_dd_1494_1050)">
<path d="M217.699 315.303L231.167 337.565C232.216 339.311 230.993 341.53 228.957 341.581L166.764 343.04C166.764 343.04 164.913 349.07 158.539 346.913L118.811 401.483C117.412 403.414 114.462 403.188 113.372 401.072L77.8592 332.325C76.975 330.62 77.0367 328.586 78.0134 326.932L99.6047 290.463L217.678 315.303H217.699Z" fill="#FFACE0"/>
<path d="M67.0009 304.773C67.0009 304.773 97.0436 273.852 125.883 277.468C125.883 277.468 116.98 255.381 126.922 229L136.278 247.902C141.902 239.951 150.559 232.575 163.905 229L178.186 255.956C183.203 255.73 186.452 255.833 186.452 255.833L225.357 322.145L224.669 328.237L161.766 341.468L111.53 381.749L104.816 373.273L102.287 367.171C101.732 367.675 101.197 368.158 100.642 368.681L67.0215 304.784L67.0009 304.773Z" fill="white"/>
<path d="M125.882 277.468L157.992 337.215C157.992 337.215 150.836 315.016 162.598 298.682L136.287 247.892" stroke="#2F2F2F" stroke-linecap="round" stroke-linejoin="round"/>
<path d="M178.183 255.967L202.592 303.048C202.592 303.048 164.581 300.757 157.99 337.215C157.99 337.215 141.098 334.103 102.275 367.171" stroke="#2F2F2F" stroke-linecap="round" stroke-linejoin="round"/>
<path d="M104.806 373.273C104.806 373.273 129.287 348.998 157.993 337.215C157.993 337.215 184.961 324.703 225.357 322.155" stroke="#2F2F2F" stroke-linecap="round" stroke-linejoin="round"/>
<path d="M163.988 340.646C163.875 339.157 162.724 337.811 161.274 337.472C159.824 337.122 158.189 337.811 157.418 339.085C156.647 340.358 156.801 342.125 157.789 343.245" stroke="#2F2F2F" stroke-linecap="round" stroke-linejoin="round"/>
<path d="M222.344 326.326C202.14 327.425 182.081 331.185 162.844 337.482" stroke="#2F2F2F" stroke-linecap="round" stroke-linejoin="round"/>
<path d="M185.258 334.37C178.102 335.387 171.038 337.092 164.211 339.455" stroke="#2F2F2F" stroke-linecap="round" stroke-linejoin="round"/>
<path d="M156.594 342.701C149.129 348.423 141.655 354.135 134.19 359.857" stroke="#2F2F2F" stroke-linecap="round" stroke-linejoin="round"/>
<path d="M156.348 339.999C139.27 349.687 123.282 361.686 108.867 375.636" stroke="#2F2F2F" stroke-linecap="round" stroke-linejoin="round"/>
<path d="M131.85 361.563L116.818 372.75" stroke="#2F2F2F" stroke-linecap="round" stroke-linejoin="round"/>
<path d="M156.758 296.679C152.841 304.466 151.36 313.454 152.563 322.094" stroke="#2F2F2F" stroke-linecap="round" stroke-linejoin="round"/>
<path d="M148.082 304.403C147.897 307.732 148.071 311.091 148.596 314.389" stroke="#2F2F2F" stroke-linecap="round" stroke-linejoin="round"/>
<path d="M152.123 287.638C150.673 290.884 149.594 294.295 148.905 297.777" stroke="#2F2F2F" stroke-linecap="round" stroke-linejoin="round"/>
<path d="M147.477 278.609C144.536 285.985 143.354 294.039 144.001 301.949" stroke="#2F2F2F" stroke-linecap="round" stroke-linejoin="round"/>
<path d="M139.62 287.916C139.6 291.624 139.939 295.333 140.648 298.969" stroke="#2F2F2F" stroke-linecap="round" stroke-linejoin="round"/>
<path d="M142.838 269.568C141.44 273.482 140.504 277.56 140.01 281.69" stroke="#2F2F2F" stroke-linecap="round" stroke-linejoin="round"/>
<path d="M135.477 275.434C135.189 280.735 135.58 286.067 136.68 291.265" stroke="#2F2F2F" stroke-linecap="round" stroke-linejoin="round"/>
<path d="M138.201 260.528C137.296 263.384 136.608 266.301 136.135 269.25" stroke="#2F2F2F" stroke-linecap="round" stroke-linejoin="round"/>
<path d="M133.564 251.488C130.943 260.754 130.418 270.596 132.022 280.098" stroke="#2F2F2F" stroke-linecap="round" stroke-linejoin="round"/>
<path d="M126.829 257.723C126.716 262.11 127.014 266.497 127.713 270.821" stroke="#2F2F2F" stroke-linecap="round" stroke-linejoin="round"/>
<path d="M128.918 242.448C128.178 245.396 127.623 248.406 127.273 251.426" stroke="#2F2F2F" stroke-linecap="round" stroke-linejoin="round"/>
<path d="M89.7598 294.736C85.9659 297.15 82.3776 299.883 79.0464 302.914" stroke="#2F2F2F" stroke-linecap="round" stroke-linejoin="round"/>
<path d="M123.465 282.727C113.533 283.868 103.848 286.939 95.0363 291.655" stroke="#2F2F2F" stroke-linecap="round" stroke-linejoin="round"/>
<path d="M127.092 289.744C108.811 292.034 91.3942 300.777 78.6245 314.06" stroke="#2F2F2F" stroke-linecap="round" stroke-linejoin="round"/>
<path d="M112.07 301.609C104.267 304.63 96.9153 308.8 90.3454 313.968" stroke="#2F2F2F" stroke-linecap="round" stroke-linejoin="round"/>
<path d="M130.721 296.77C126.474 297.356 122.269 298.28 118.157 299.513" stroke="#2F2F2F" stroke-linecap="round" stroke-linejoin="round"/>
<path d="M99.3945 317.306C94.7576 320.388 90.4085 323.922 86.4603 327.846" stroke="#2F2F2F" stroke-linecap="round" stroke-linejoin="round"/>
<path d="M134.342 303.797C124.132 305.328 114.221 308.739 105.204 313.762" stroke="#2F2F2F" stroke-linecap="round" stroke-linejoin="round"/>
<path d="M124.73 314.04C115.261 317.142 106.316 321.827 98.3891 327.857" stroke="#2F2F2F" stroke-linecap="round" stroke-linejoin="round"/>
<path d="M137.975 310.814C135.404 311.225 132.865 311.759 130.346 312.406" stroke="#2F2F2F" stroke-linecap="round" stroke-linejoin="round"/>
<path d="M113.986 327.415C106.841 331.257 100.188 336.044 94.3074 341.643" stroke="#2F2F2F" stroke-linecap="round" stroke-linejoin="round"/>
<path d="M141.6 317.84C134.834 319.021 128.203 320.973 121.869 323.644" stroke="#2F2F2F" stroke-linecap="round" stroke-linejoin="round"/>
<path d="M145.23 324.867C131.453 327.435 118.283 333.147 106.942 341.376" stroke="#2F2F2F" stroke-linecap="round" stroke-linejoin="round"/>
<path d="M120.553 342.27C115.885 344.858 111.412 347.817 107.228 351.125" stroke="#2F2F2F" stroke-linecap="round" stroke-linejoin="round"/>
<path d="M148.85 331.883C141.838 333.28 134.99 335.458 128.461 338.345" stroke="#2F2F2F" stroke-linecap="round" stroke-linejoin="round"/>
<path d="M160.561 315.775C158.566 318.816 156.972 322.093 155.831 325.545" stroke="#2F2F2F" stroke-linecap="round" stroke-linejoin="round"/>
<path d="M181.041 299.503C174.8 301.825 169.125 305.605 164.632 310.526" stroke="#2F2F2F" stroke-linecap="round" stroke-linejoin="round"/>
<path d="M194.049 296.924C191.622 297.006 189.216 297.304 186.841 297.818" stroke="#2F2F2F" stroke-linecap="round" stroke-linejoin="round"/>
<path d="M190.15 289.354C177.196 290.073 165.125 297.12 158.072 307.968" stroke="#2F2F2F" stroke-linecap="round" stroke-linejoin="round"/>
<path d="M166.801 288.655C164.601 290.155 162.544 291.86 160.683 293.761" stroke="#2F2F2F" stroke-linecap="round" stroke-linejoin="round"/>
<path d="M186.246 281.783C182.37 282.101 178.545 282.985 174.926 284.392" stroke="#2F2F2F" stroke-linecap="round" stroke-linejoin="round"/>
<path d="M182.348 274.221C172.806 275.238 163.789 279.8 157.302 286.867" stroke="#2F2F2F" stroke-linecap="round" stroke-linejoin="round"/>
<path d="M160.828 273.708C158.227 275.567 155.852 277.745 153.785 280.18" stroke="#2F2F2F" stroke-linecap="round" stroke-linejoin="round"/>
<path d="M178.441 266.65C174.082 267.246 169.846 268.602 165.929 270.595" stroke="#2F2F2F" stroke-linecap="round" stroke-linejoin="round"/>
<path d="M174.541 259.079C165.092 260.702 156.425 265.869 150.441 273.338" stroke="#2F2F2F" stroke-linecap="round" stroke-linejoin="round"/>
<path d="M160.092 255.411C154.869 258.237 150.283 262.212 146.767 266.999" stroke="#2F2F2F" stroke-linecap="round" stroke-linejoin="round"/>
<path d="M170.639 251.518C169.086 251.847 167.554 252.278 166.053 252.792" stroke="#2F2F2F" stroke-linecap="round" stroke-linejoin="round"/>
<path d="M166.742 243.947C157.211 246.443 148.739 252.443 143.187 260.569" stroke="#2F2F2F" stroke-linecap="round" stroke-linejoin="round"/>
<path d="M143.393 249.094C142.097 250.563 140.894 252.115 139.804 253.738" stroke="#2F2F2F" stroke-linecap="round" stroke-linejoin="round"/>
<path d="M162.842 236.376C157.423 238.112 152.375 240.937 148.026 244.584" stroke="#2F2F2F" stroke-linecap="round" stroke-linejoin="round"/>
</g>
<g filter="url(#filter4_dd_1494_1050)">
<rect x="480.382" y="35.3332" width="115.955" height="162.335" rx="17.9775" fill="white"/>
<path d="M538.359 57.3107C543.087 57.3107 547.768 58.2418 552.136 60.051C556.504 61.8602 560.472 64.5119 563.815 67.8548C567.158 71.1977 569.81 75.1663 571.619 79.5341C573.428 83.9018 574.359 88.5831 574.359 93.3107C574.359 98.0383 573.428 102.72 571.619 107.087C569.81 111.455 567.158 115.424 563.815 118.767C560.472 122.109 556.504 124.761 552.136 126.57C547.768 128.38 543.087 129.311 538.359 129.311C533.632 129.311 528.95 128.379 524.583 126.57C520.215 124.761 516.246 122.109 512.904 118.767C509.561 115.424 506.909 111.455 505.1 107.087C503.291 102.72 502.359 98.0382 502.359 93.3107C502.359 88.5831 503.291 83.9018 505.1 79.534C506.909 75.1663 509.561 71.1977 512.904 67.8548C516.246 64.5119 520.215 61.8602 524.583 60.051C528.951 58.2418 533.632 57.3107 538.359 57.3107L538.359 57.3107Z" stroke="#DEDEDE" stroke-width="8" stroke-linecap="round" stroke-linejoin="round"/>
<path d="M538.359 57.3107C545.962 57.3107 553.369 59.7174 559.52 64.1861C565.67 68.6547 570.248 74.9557 572.597 82.1861C574.947 89.4164 574.947 97.2049 572.597 104.435C570.248 111.666 565.67 117.967 559.52 122.435C553.369 126.904 545.962 129.311 538.359 129.311C530.757 129.311 523.35 126.904 517.199 122.435C511.049 117.967 506.471 111.666 504.121 104.435C501.772 97.2049 501.772 89.4164 504.121 82.1861" stroke="#8C52FF" stroke-width="8" stroke-linecap="round" stroke-linejoin="round"/>
<rect x="514" y="69.0001" width="48.96" height="48.96" rx="12" fill="white"/>
<path d="M539.831 78.3507C540.69 78.4714 541.55 78.5795 542.39 78.8044C543.347 79.06 544.275 79.3882 545.171 79.8079C545.413 79.9215 545.405 80.0082 545.228 80.1818C544.795 80.6039 544.38 81.0441 543.955 81.4748C543.663 81.7715 543.45 82.1107 543.379 82.5217C543.338 82.7552 543.237 82.775 543.029 82.6882C541.613 82.0965 540.123 81.777 538.595 81.8093C534.093 81.9056 530.622 83.8384 528.293 87.656C527.103 89.6054 526.608 91.7552 526.729 94.0186C527.036 99.7311 531.317 104.073 536.558 104.916C542.893 105.934 548.764 101.993 550.097 95.8134C550.589 93.5318 550.375 91.2952 549.499 89.1249C549.349 88.7549 549.349 88.7573 549.743 88.6516C550.108 88.5538 550.417 88.3589 550.687 88.1017C551.133 87.6781 551.583 87.2592 552.021 86.8284C552.181 86.6714 552.265 86.6785 552.364 86.8821C553.071 88.3297 553.536 89.8492 553.755 91.4404C553.791 91.7031 553.825 91.9658 553.859 92.2277V94.7081C553.827 94.9408 553.793 95.1735 553.762 95.4071C553.342 98.5998 552.044 101.411 549.8 103.738C546.065 107.613 541.456 109.206 536.09 108.412C531.867 107.786 528.484 105.678 526.004 102.259C523.42 98.6976 522.517 94.7018 523.469 90.4345C524.795 84.4948 528.54 80.6591 534.434 78.8604C535.332 78.5866 536.265 78.4762 537.193 78.3499H539.831V78.3507Z" fill="#8B52FE"/>
<path d="M553.859 83.193C553.612 83.7468 553.159 84.1476 552.768 84.5901C551.94 85.525 551.033 86.3857 550.136 87.2567C549.719 87.6614 549.262 87.7939 548.692 87.6858C548.016 87.5573 547.332 87.4736 546.655 87.3569C546.431 87.3182 546.302 87.4263 546.162 87.5636C543.932 89.7638 541.698 91.9618 539.468 94.1636C539.235 94.394 538.98 94.5707 538.645 94.6054C538.151 94.6559 537.707 94.4192 537.477 93.9908C537.259 93.5838 537.315 93.0852 537.624 92.7191C537.694 92.6363 537.775 92.5613 537.853 92.4848C540.064 90.3066 542.273 88.1268 544.49 85.9542C544.681 85.7672 544.742 85.596 544.692 85.3302C544.56 84.6154 544.468 83.8927 544.355 83.174C544.299 82.8206 544.38 82.5035 544.624 82.2431C545.845 80.9406 547.131 79.7044 548.527 78.5826C548.649 78.4847 548.804 78.4279 548.944 78.3522C549.203 78.3522 549.463 78.3522 549.723 78.3522C550.148 78.5045 550.372 78.8043 550.441 79.2453C550.512 79.691 550.616 80.1312 550.704 80.5738C550.81 81.1039 551.067 81.3564 551.604 81.4589C552.044 81.5434 552.481 81.6404 552.923 81.7098C553.376 81.7808 553.701 81.9923 553.859 82.4269V83.1946L553.859 83.193Z" fill="#8B52FE"/>
<path d="M530.161 93.5442C530.161 89.3906 533.134 85.9596 537.252 85.3253C539.039 85.05 540.753 85.3324 542.364 86.1608C542.673 86.3193 542.672 86.3265 542.429 86.5663C541.702 87.2834 540.968 87.9942 540.251 88.7208C540.072 88.9015 539.91 88.9307 539.669 88.8707C536.827 88.1654 534.041 90.1061 533.719 92.977C533.425 95.5993 535.428 97.9353 538.011 98.1925C540.556 98.4465 542.907 96.6841 543.272 94.1588C543.361 93.5442 543.355 92.9186 543.173 92.3143C543.105 92.0871 543.142 91.9325 543.316 91.7652C544.059 91.0497 544.794 90.3262 545.52 89.5941C545.709 89.404 545.793 89.4166 545.921 89.6533C548.04 93.5758 546.504 98.5704 542.521 100.69C537.531 103.345 531.42 100.522 530.307 95.0471C530.201 94.5256 530.134 93.9986 530.16 93.5442H530.161Z" fill="#8B52FE"/>
<path d="M517.699 154.511H512.974V159.361H509.674V154.511H504.949V151.461H509.674V146.611H512.974V151.461H517.699V154.511Z" fill="#34196A"/>
<path d="M524.12 152.236C522.453 151.369 521.62 150.027 521.62 148.211C521.62 147.311 521.845 146.494 522.295 145.761C522.762 145.011 523.453 144.419 524.37 143.986C525.303 143.536 526.437 143.311 527.77 143.311C529.103 143.311 530.228 143.536 531.145 143.986C532.078 144.419 532.77 145.011 533.22 145.761C533.687 146.494 533.92 147.311 533.92 148.211C533.92 149.127 533.695 149.936 533.245 150.636C532.795 151.319 532.195 151.852 531.445 152.236C532.362 152.636 533.078 153.219 533.595 153.986C534.112 154.752 534.37 155.661 534.37 156.711C534.37 157.844 534.078 158.836 533.495 159.686C532.928 160.519 532.145 161.161 531.145 161.611C530.145 162.061 529.02 162.286 527.77 162.286C526.52 162.286 525.395 162.061 524.395 161.611C523.412 161.161 522.628 160.519 522.045 159.686C521.478 158.836 521.195 157.844 521.195 156.711C521.195 155.661 521.453 154.752 521.97 153.986C522.487 153.202 523.203 152.619 524.12 152.236ZM530.52 148.711C530.52 147.894 530.27 147.261 529.77 146.811C529.287 146.361 528.62 146.136 527.77 146.136C526.937 146.136 526.27 146.361 525.77 146.811C525.287 147.261 525.045 147.902 525.045 148.736C525.045 149.486 525.295 150.086 525.795 150.536C526.312 150.986 526.97 151.211 527.77 151.211C528.57 151.211 529.228 150.986 529.745 150.536C530.262 150.069 530.52 149.461 530.52 148.711ZM527.77 153.761C526.82 153.761 526.045 154.002 525.445 154.486C524.862 154.969 524.57 155.661 524.57 156.561C524.57 157.394 524.853 158.077 525.42 158.611C526.003 159.127 526.787 159.386 527.77 159.386C528.753 159.386 529.528 159.119 530.095 158.586C530.662 158.052 530.945 157.377 530.945 156.561C530.945 155.677 530.653 154.994 530.07 154.511C529.487 154.011 528.72 153.761 527.77 153.761Z" fill="#34196A"/>
<path d="M537.134 152.536C537.134 149.652 537.651 147.394 538.684 145.761C539.734 144.127 541.468 143.311 543.884 143.311C546.301 143.311 548.026 144.127 549.059 145.761C550.109 147.394 550.634 149.652 550.634 152.536C550.634 155.436 550.109 157.711 549.059 159.361C548.026 161.011 546.301 161.836 543.884 161.836C541.468 161.836 539.734 161.011 538.684 159.361C537.651 157.711 537.134 155.436 537.134 152.536ZM547.184 152.536C547.184 151.302 547.101 150.269 546.934 149.436C546.784 148.586 546.468 147.894 545.984 147.361C545.518 146.827 544.818 146.561 543.884 146.561C542.951 146.561 542.243 146.827 541.759 147.361C541.293 147.894 540.976 148.586 540.809 149.436C540.659 150.269 540.584 151.302 540.584 152.536C540.584 153.802 540.659 154.869 540.809 155.736C540.959 156.586 541.276 157.277 541.759 157.811C542.243 158.327 542.951 158.586 543.884 158.586C544.818 158.586 545.526 158.327 546.009 157.811C546.493 157.277 546.809 156.586 546.959 155.736C547.109 154.869 547.184 153.802 547.184 152.536Z" fill="#34196A"/>
<path d="M552.896 148.136C552.896 146.869 553.263 145.877 553.996 145.161C554.746 144.444 555.705 144.086 556.871 144.086C558.038 144.086 558.988 144.444 559.721 145.161C560.471 145.877 560.846 146.869 560.846 148.136C560.846 149.419 560.471 150.419 559.721 151.136C558.988 151.852 558.038 152.211 556.871 152.211C555.705 152.211 554.746 151.852 553.996 151.136C553.263 150.419 552.896 149.419 552.896 148.136ZM568.946 144.386L559.121 161.886H555.721L565.521 144.386H568.946ZM556.846 146.186C555.93 146.186 555.471 146.836 555.471 148.136C555.471 149.452 555.93 150.111 556.846 150.111C557.296 150.111 557.646 149.952 557.896 149.636C558.146 149.302 558.271 148.802 558.271 148.136C558.271 146.836 557.796 146.186 556.846 146.186ZM563.871 158.111C563.871 156.827 564.238 155.836 564.971 155.136C565.721 154.419 566.68 154.061 567.846 154.061C569.013 154.061 569.955 154.419 570.671 155.136C571.405 155.836 571.771 156.827 571.771 158.111C571.771 159.394 571.405 160.394 570.671 161.111C569.955 161.827 569.013 162.186 567.846 162.186C566.663 162.186 565.705 161.827 564.971 161.111C564.238 160.394 563.871 159.394 563.871 158.111ZM567.821 156.161C566.871 156.161 566.396 156.811 566.396 158.111C566.396 159.427 566.871 160.086 567.821 160.086C568.755 160.086 569.221 159.427 569.221 158.111C569.221 156.811 568.755 156.161 567.821 156.161Z" fill="#34196A"/>
<path d="M517.285 173.165C517.285 173.919 517.025 174.547 516.505 175.05C515.994 175.544 515.209 175.791 514.152 175.791H512.41V179.574H511.227V170.513H514.152C515.175 170.513 515.95 170.76 516.479 171.254C517.016 171.748 517.285 172.385 517.285 173.165ZM514.152 174.816C514.811 174.816 515.296 174.673 515.608 174.387C515.92 174.101 516.076 173.694 516.076 173.165C516.076 172.047 515.435 171.488 514.152 171.488H512.41V174.816H514.152Z" fill="#BBB9B9"/>
<path d="M519.938 173.607C520.146 173.2 520.441 172.883 520.822 172.658C521.212 172.433 521.685 172.32 522.239 172.32V173.542H521.927C520.601 173.542 519.938 174.261 519.938 175.7V179.574H518.755V172.45H519.938V173.607Z" fill="#BBB9B9"/>
<path d="M530.105 175.739C530.105 175.964 530.092 176.203 530.066 176.454H524.372C524.415 177.156 524.653 177.706 525.087 178.105C525.529 178.495 526.062 178.69 526.686 178.69C527.197 178.69 527.622 178.573 527.96 178.339C528.306 178.096 528.549 177.776 528.688 177.377H529.962C529.771 178.062 529.39 178.621 528.818 179.054C528.246 179.479 527.535 179.691 526.686 179.691C526.01 179.691 525.403 179.539 524.866 179.236C524.337 178.933 523.921 178.504 523.618 177.949C523.314 177.386 523.163 176.736 523.163 175.999C523.163 175.262 523.31 174.617 523.605 174.062C523.899 173.507 524.311 173.083 524.84 172.788C525.377 172.485 525.992 172.333 526.686 172.333C527.362 172.333 527.96 172.48 528.48 172.775C529 173.07 529.398 173.477 529.676 173.997C529.962 174.508 530.105 175.089 530.105 175.739ZM528.883 175.492C528.883 175.041 528.783 174.656 528.584 174.335C528.384 174.006 528.111 173.759 527.765 173.594C527.427 173.421 527.05 173.334 526.634 173.334C526.036 173.334 525.524 173.525 525.1 173.906C524.684 174.287 524.445 174.816 524.385 175.492H528.883Z" fill="#BBB9B9"/>
<path d="M531.224 175.999C531.224 175.262 531.372 174.621 531.666 174.075C531.961 173.52 532.368 173.091 532.888 172.788C533.417 172.485 534.019 172.333 534.695 172.333C535.571 172.333 536.29 172.545 536.853 172.97C537.425 173.395 537.802 173.984 537.984 174.738H536.71C536.589 174.305 536.351 173.962 535.995 173.711C535.649 173.46 535.215 173.334 534.695 173.334C534.019 173.334 533.473 173.568 533.057 174.036C532.641 174.495 532.433 175.15 532.433 175.999C532.433 176.857 532.641 177.52 533.057 177.988C533.473 178.456 534.019 178.69 534.695 178.69C535.215 178.69 535.649 178.569 535.995 178.326C536.342 178.083 536.58 177.737 536.71 177.286H537.984C537.794 178.014 537.412 178.599 536.84 179.041C536.268 179.474 535.553 179.691 534.695 179.691C534.019 179.691 533.417 179.539 532.888 179.236C532.368 178.933 531.961 178.504 531.666 177.949C531.372 177.394 531.224 176.744 531.224 175.999Z" fill="#BBB9B9"/>
<path d="M540.174 171.293C539.948 171.293 539.758 171.215 539.602 171.059C539.446 170.903 539.368 170.712 539.368 170.487C539.368 170.262 539.446 170.071 539.602 169.915C539.758 169.759 539.948 169.681 540.174 169.681C540.39 169.681 540.572 169.759 540.72 169.915C540.876 170.071 540.954 170.262 540.954 170.487C540.954 170.712 540.876 170.903 540.72 171.059C540.572 171.215 540.39 171.293 540.174 171.293ZM540.746 172.45V179.574H539.563V172.45H540.746Z" fill="#BBB9B9"/>
<path d="M545.284 179.691C544.738 179.691 544.248 179.6 543.815 179.418C543.382 179.227 543.039 178.967 542.788 178.638C542.537 178.3 542.398 177.914 542.372 177.481H543.594C543.629 177.836 543.793 178.127 544.088 178.352C544.391 178.577 544.786 178.69 545.271 178.69C545.722 178.69 546.077 178.59 546.337 178.391C546.597 178.192 546.727 177.94 546.727 177.637C546.727 177.325 546.588 177.095 546.311 176.948C546.034 176.792 545.605 176.64 545.024 176.493C544.495 176.354 544.062 176.216 543.724 176.077C543.395 175.93 543.109 175.717 542.866 175.44C542.632 175.154 542.515 174.781 542.515 174.322C542.515 173.958 542.623 173.624 542.84 173.321C543.057 173.018 543.364 172.779 543.763 172.606C544.162 172.424 544.617 172.333 545.128 172.333C545.917 172.333 546.554 172.532 547.039 172.931C547.524 173.33 547.784 173.876 547.819 174.569H546.636C546.61 174.196 546.458 173.897 546.181 173.672C545.912 173.447 545.548 173.334 545.089 173.334C544.664 173.334 544.326 173.425 544.075 173.607C543.824 173.789 543.698 174.027 543.698 174.322C543.698 174.556 543.772 174.751 543.919 174.907C544.075 175.054 544.266 175.176 544.491 175.271C544.725 175.358 545.046 175.457 545.453 175.57C545.964 175.709 546.38 175.847 546.701 175.986C547.022 176.116 547.295 176.315 547.52 176.584C547.754 176.853 547.875 177.204 547.884 177.637C547.884 178.027 547.776 178.378 547.559 178.69C547.342 179.002 547.035 179.249 546.636 179.431C546.246 179.604 545.795 179.691 545.284 179.691Z" fill="#BBB9B9"/>
<path d="M549.112 175.986C549.112 175.258 549.259 174.621 549.554 174.075C549.849 173.52 550.252 173.091 550.763 172.788C551.283 172.485 551.859 172.333 552.492 172.333C553.116 172.333 553.658 172.467 554.117 172.736C554.576 173.005 554.919 173.343 555.144 173.75V172.45H556.34V179.574H555.144V178.248C554.91 178.664 554.559 179.011 554.091 179.288C553.632 179.557 553.094 179.691 552.479 179.691C551.846 179.691 551.274 179.535 550.763 179.223C550.252 178.911 549.849 178.473 549.554 177.91C549.259 177.347 549.112 176.705 549.112 175.986ZM555.144 175.999C555.144 175.462 555.036 174.994 554.819 174.595C554.602 174.196 554.308 173.893 553.935 173.685C553.571 173.468 553.168 173.36 552.726 173.36C552.284 173.36 551.881 173.464 551.517 173.672C551.153 173.88 550.863 174.183 550.646 174.582C550.429 174.981 550.321 175.449 550.321 175.986C550.321 176.532 550.429 177.009 550.646 177.416C550.863 177.815 551.153 178.122 551.517 178.339C551.881 178.547 552.284 178.651 552.726 178.651C553.168 178.651 553.571 178.547 553.935 178.339C554.308 178.122 554.602 177.815 554.819 177.416C555.036 177.009 555.144 176.536 555.144 175.999ZM551.049 171.683C551.11 171.241 551.253 170.903 551.478 170.669C551.712 170.435 552.002 170.318 552.349 170.318C552.514 170.318 552.652 170.348 552.765 170.409C552.886 170.461 553.029 170.539 553.194 170.643C553.315 170.73 553.424 170.799 553.519 170.851C553.614 170.894 553.718 170.916 553.831 170.916C553.978 170.916 554.104 170.868 554.208 170.773C554.312 170.678 554.377 170.539 554.403 170.357H555.079C555.027 170.79 554.884 171.124 554.65 171.358C554.416 171.592 554.126 171.709 553.779 171.709C553.614 171.709 553.467 171.683 553.337 171.631C553.216 171.57 553.077 171.484 552.921 171.371C552.782 171.284 552.67 171.219 552.583 171.176C552.505 171.133 552.41 171.111 552.297 171.111C552.15 171.111 552.024 171.159 551.92 171.254C551.825 171.349 551.764 171.492 551.738 171.683H551.049Z" fill="#BBB9B9"/>
<path d="M561.446 179.691C560.779 179.691 560.172 179.539 559.626 179.236C559.089 178.933 558.664 178.504 558.352 177.949C558.049 177.386 557.897 176.736 557.897 175.999C557.897 175.271 558.053 174.63 558.365 174.075C558.686 173.512 559.119 173.083 559.665 172.788C560.211 172.485 560.822 172.333 561.498 172.333C562.174 172.333 562.785 172.485 563.331 172.788C563.877 173.083 564.306 173.507 564.618 174.062C564.939 174.617 565.099 175.262 565.099 175.999C565.099 176.736 564.935 177.386 564.605 177.949C564.285 178.504 563.847 178.933 563.292 179.236C562.738 179.539 562.122 179.691 561.446 179.691ZM561.446 178.651C561.871 178.651 562.27 178.551 562.642 178.352C563.015 178.153 563.314 177.854 563.539 177.455C563.773 177.056 563.89 176.571 563.89 175.999C563.89 175.427 563.778 174.942 563.552 174.543C563.327 174.144 563.032 173.85 562.668 173.659C562.304 173.46 561.91 173.36 561.485 173.36C561.052 173.36 560.653 173.46 560.289 173.659C559.934 173.85 559.648 174.144 559.431 174.543C559.215 174.942 559.106 175.427 559.106 175.999C559.106 176.58 559.21 177.069 559.418 177.468C559.635 177.867 559.921 178.166 560.276 178.365C560.632 178.556 561.022 178.651 561.446 178.651Z" fill="#BBB9B9"/>
<rect x="480.382" y="35.3332" width="115.955" height="162.335" rx="17.9775" stroke="#C7C7C7" stroke-width="0.765"/>
</g>
<g filter="url(#filter5_dd_1494_1050)">
<rect x="10" y="399.951" width="163.416" height="85.68" rx="18.36" fill="white" shape-rendering="crispEdges"/>
<rect x="28.3594" y="418.311" width="48.96" height="48.96" rx="12" fill="#8C52FF"/>
<path d="M39.6035 453.945C39.6035 448.427 39.6035 442.91 39.6035 437.392C39.7235 437.385 39.8434 437.373 39.9634 437.373C48.5476 437.372 57.1317 437.372 65.7159 437.373C65.8359 437.373 65.9558 437.385 66.0758 437.392V453.945C65.8145 454.917 65.1996 455.551 64.2144 455.829H41.4648C40.4811 455.55 39.8641 454.917 39.6035 453.945ZM52.841 445.827C55.3559 445.827 57.8708 445.827 60.3863 445.827C61.0591 445.827 61.3501 445.542 61.3508 444.882C61.3521 443.491 61.3521 442.099 61.3508 440.708C61.3508 440.034 61.0626 439.754 60.3705 439.754C55.349 439.754 50.3275 439.754 45.3061 439.754C44.6153 439.754 44.3292 440.034 44.3292 440.711C44.3285 442.095 44.3285 443.477 44.3292 444.861C44.3292 445.552 44.6126 445.827 45.3226 445.827C47.8292 445.827 50.3351 445.827 52.8417 445.827H52.841ZM48.9502 453.467C50.1904 453.467 51.4299 453.468 52.6701 453.467C53.2905 453.466 53.5931 453.169 53.5945 452.561C53.5966 451.144 53.5966 449.728 53.5945 448.311C53.5938 447.687 53.294 447.396 52.6542 447.396C50.1917 447.394 47.7286 447.394 45.2661 447.396C44.6284 447.396 44.3299 447.689 44.3292 448.314C44.3278 449.722 44.3278 451.131 44.3292 452.538C44.3292 453.178 44.6264 453.467 45.2826 453.467C46.5056 453.469 47.7279 453.467 48.9508 453.467L48.9502 453.467ZM61.3508 450.439C61.3508 449.735 61.3521 449.032 61.3508 448.327C61.3494 447.684 61.0564 447.394 60.4029 447.394C58.982 447.393 57.5619 447.393 56.1411 447.394C55.4848 447.394 55.1877 447.683 55.187 448.322C55.1856 449.73 55.1856 451.137 55.187 452.545C55.1877 453.171 55.4869 453.465 56.1218 453.466C57.5509 453.467 58.98 453.467 60.4091 453.466C61.0571 453.466 61.3494 453.173 61.3508 452.526C61.3521 451.83 61.3508 451.135 61.3508 450.439Z" fill="white"/>
<path d="M66.0758 431.586V435.864C65.9558 435.871 65.8359 435.883 65.7159 435.883C57.1317 435.884 48.5476 435.884 39.9634 435.883C39.8434 435.883 39.7235 435.871 39.6035 435.864V431.586C39.8662 430.622 40.4894 430.013 41.4648 429.752H64.2144C65.1934 430.01 65.8117 430.623 66.0758 431.586ZM45.8335 432.803C45.8286 432.422 45.4688 432.07 45.0848 432.069C44.7008 432.069 44.3403 432.42 44.3341 432.8C44.3278 433.187 44.7049 433.556 45.0958 433.546C45.4839 433.537 45.8376 433.179 45.8335 432.802V432.803ZM48.1953 433.547C48.5827 433.539 48.9377 433.184 48.9357 432.805C48.9336 432.426 48.5751 432.072 48.1898 432.069C47.7968 432.066 47.4232 432.44 47.4363 432.823C47.4494 433.206 47.8141 433.554 48.1953 433.546V433.547ZM51.2865 432.07C50.9018 432.071 50.5419 432.424 50.5385 432.804C50.5344 433.181 50.8887 433.538 51.2768 433.547C51.6677 433.557 52.0441 433.188 52.0379 432.801C52.0317 432.42 51.6705 432.069 51.2872 432.07L51.2865 432.07Z" fill="white"/>
<path d="M52.8403 444.338C50.626 444.338 48.4124 444.338 46.1981 444.338C45.841 444.338 45.8389 444.337 45.8389 443.989C45.8382 443.174 45.8458 442.36 45.8341 441.545C45.8306 441.314 45.9058 441.24 46.1429 441.24C50.6053 441.245 55.0677 441.245 59.53 441.24C59.7624 441.24 59.8458 441.305 59.8423 441.542C59.8306 442.365 59.8285 443.188 59.843 444.011C59.8478 444.267 59.7693 444.344 59.5073 444.343C57.2847 444.334 55.0622 444.338 52.8396 444.338L52.8403 444.338Z" fill="white"/>
<path d="M48.9486 451.978C48.0096 451.978 47.0707 451.973 46.1324 451.982C45.9063 451.985 45.8333 451.913 45.836 451.69C45.8464 450.85 45.847 450.01 45.836 449.171C45.8333 448.947 45.9084 448.879 46.1331 448.879C48.0193 448.886 49.9054 448.886 51.7916 448.879C52.017 448.879 52.0908 448.948 52.088 449.171C52.0777 450.011 52.077 450.851 52.088 451.69C52.0908 451.914 52.0156 451.984 51.7909 451.982C50.8437 451.972 49.8965 451.978 48.9486 451.978V451.978Z" fill="white"/>
<path d="M59.8395 450.448C59.8395 450.871 59.8347 451.296 59.8422 451.719C59.8457 451.897 59.7947 451.982 59.5955 451.98C58.7089 451.973 57.8217 451.974 56.9351 451.98C56.7531 451.982 56.6959 451.908 56.6973 451.738C56.7021 450.864 56.7028 449.99 56.6973 449.117C56.6959 448.938 56.7704 448.882 56.9434 448.883C57.8299 448.888 58.7172 448.888 59.6037 448.883C59.7857 448.882 59.8443 448.955 59.8416 449.125C59.8347 449.566 59.8395 450.007 59.8395 450.448V450.448Z" fill="white"/>
<path d="M100.602 434.513H95.8767V439.363H92.5767V434.513H87.8517V431.463H92.5767V426.613H95.8767V431.463H100.602V434.513Z" fill="#34196A"/>
<path d="M103.547 426.888V423.663H109.572V441.888H105.972V426.888H103.547Z" fill="#34196A"/>
<path d="M113.03 432.538C113.03 429.655 113.547 427.397 114.58 425.763C115.63 424.13 117.363 423.313 119.78 423.313C122.197 423.313 123.922 424.13 124.955 425.763C126.005 427.397 126.53 429.655 126.53 432.538C126.53 435.438 126.005 437.713 124.955 439.363C123.922 441.013 122.197 441.838 119.78 441.838C117.363 441.838 115.63 441.013 114.58 439.363C113.547 437.713 113.03 435.438 113.03 432.538ZM123.08 432.538C123.08 431.305 122.997 430.272 122.83 429.438C122.68 428.588 122.363 427.897 121.88 427.363C121.413 426.83 120.713 426.563 119.78 426.563C118.847 426.563 118.138 426.83 117.655 427.363C117.188 427.897 116.872 428.588 116.705 429.438C116.555 430.272 116.48 431.305 116.48 432.538C116.48 433.805 116.555 434.872 116.705 435.738C116.855 436.588 117.172 437.28 117.655 437.813C118.138 438.33 118.847 438.588 119.78 438.588C120.713 438.588 121.422 438.33 121.905 437.813C122.388 437.28 122.705 436.588 122.855 435.738C123.005 434.872 123.08 433.805 123.08 432.538Z" fill="#34196A"/>
<path d="M93.4563 449.827V450.789H90.9863V458.888H89.8033V450.789H87.3203V449.827H93.4563Z" fill="#BBB9B9"/>
<path d="M101.413 455.053C101.413 455.279 101.4 455.517 101.374 455.768H95.6795C95.7228 456.47 95.9612 457.021 96.3945 457.419C96.8365 457.809 97.3695 458.004 97.9935 458.004C98.5048 458.004 98.9295 457.887 99.2675 457.653C99.6142 457.411 99.8568 457.09 99.9955 456.691H101.27C101.079 457.376 100.698 457.935 100.126 458.368C99.5535 458.793 98.8428 459.005 97.9935 459.005C97.3175 459.005 96.7108 458.854 96.1735 458.55C95.6448 458.247 95.2288 457.818 94.9255 457.263C94.6222 456.7 94.4705 456.05 94.4705 455.313C94.4705 454.577 94.6178 453.931 94.9125 453.376C95.2072 452.822 95.6188 452.397 96.1475 452.102C96.6848 451.799 97.3002 451.647 97.9935 451.647C98.6695 451.647 99.2675 451.795 99.7875 452.089C100.308 452.384 100.706 452.791 100.984 453.311C101.27 453.823 101.413 454.403 101.413 455.053ZM100.191 454.806C100.191 454.356 100.091 453.97 99.8915 453.649C99.6922 453.32 99.4192 453.073 99.0725 452.908C98.7345 452.735 98.3575 452.648 97.9415 452.648C97.3435 452.648 96.8322 452.839 96.4075 453.22C95.9915 453.602 95.7532 454.13 95.6925 454.806H100.191Z" fill="#BBB9B9"/>
<path d="M111.541 451.634C112.096 451.634 112.59 451.751 113.023 451.985C113.456 452.211 113.799 452.553 114.05 453.012C114.301 453.472 114.427 454.031 114.427 454.689V458.888H113.257V454.858C113.257 454.148 113.079 453.606 112.724 453.233C112.377 452.852 111.905 452.661 111.307 452.661C110.692 452.661 110.202 452.861 109.838 453.259C109.474 453.649 109.292 454.217 109.292 454.962V458.888H108.122V454.858C108.122 454.148 107.944 453.606 107.589 453.233C107.242 452.852 106.77 452.661 106.172 452.661C105.557 452.661 105.067 452.861 104.703 453.259C104.339 453.649 104.157 454.217 104.157 454.962V458.888H102.974V451.764H104.157V452.791C104.391 452.419 104.703 452.133 105.093 451.933C105.492 451.734 105.929 451.634 106.406 451.634C107.004 451.634 107.533 451.769 107.992 452.037C108.451 452.306 108.794 452.7 109.019 453.22C109.218 452.718 109.548 452.328 110.007 452.05C110.466 451.773 110.978 451.634 111.541 451.634Z" fill="#BBB9B9"/>
<path d="M117.551 453.077C117.785 452.67 118.131 452.332 118.591 452.063C119.059 451.786 119.6 451.647 120.216 451.647C120.848 451.647 121.42 451.799 121.932 452.102C122.452 452.406 122.859 452.835 123.154 453.389C123.448 453.935 123.596 454.572 123.596 455.3C123.596 456.02 123.448 456.661 123.154 457.224C122.859 457.788 122.452 458.225 121.932 458.537C121.42 458.849 120.848 459.005 120.216 459.005C119.609 459.005 119.072 458.871 118.604 458.602C118.144 458.325 117.793 457.983 117.551 457.575V462.268H116.368V451.764H117.551V453.077ZM122.387 455.3C122.387 454.763 122.278 454.295 122.062 453.896C121.845 453.498 121.55 453.194 121.178 452.986C120.814 452.778 120.411 452.674 119.969 452.674C119.535 452.674 119.132 452.783 118.76 452.999C118.396 453.207 118.101 453.515 117.876 453.922C117.659 454.321 117.551 454.785 117.551 455.313C117.551 455.851 117.659 456.323 117.876 456.73C118.101 457.129 118.396 457.437 118.76 457.653C119.132 457.861 119.535 457.965 119.969 457.965C120.411 457.965 120.814 457.861 121.178 457.653C121.55 457.437 121.845 457.129 122.062 456.73C122.278 456.323 122.387 455.846 122.387 455.3Z" fill="#BBB9B9"/>
<path d="M126.336 449.268V458.888H125.153V449.268H126.336Z" fill="#BBB9B9"/>
<path d="M127.91 455.3C127.91 454.572 128.057 453.935 128.352 453.389C128.647 452.835 129.05 452.406 129.561 452.102C130.081 451.799 130.657 451.647 131.29 451.647C131.914 451.647 132.456 451.782 132.915 452.05C133.374 452.319 133.717 452.657 133.942 453.064V451.764H135.138V458.888H133.942V457.562C133.708 457.978 133.357 458.325 132.889 458.602C132.43 458.871 131.892 459.005 131.277 459.005C130.644 459.005 130.072 458.849 129.561 458.537C129.05 458.225 128.647 457.788 128.352 457.224C128.057 456.661 127.91 456.02 127.91 455.3ZM133.942 455.313C133.942 454.776 133.834 454.308 133.617 453.909C133.4 453.511 133.106 453.207 132.733 452.999C132.369 452.783 131.966 452.674 131.524 452.674C131.082 452.674 130.679 452.778 130.315 452.986C129.951 453.194 129.661 453.498 129.444 453.896C129.227 454.295 129.119 454.763 129.119 455.3C129.119 455.846 129.227 456.323 129.444 456.73C129.661 457.129 129.951 457.437 130.315 457.653C130.679 457.861 131.082 457.965 131.524 457.965C131.966 457.965 132.369 457.861 132.733 457.653C133.106 457.437 133.4 457.129 133.617 456.73C133.834 456.323 133.942 455.851 133.942 455.313Z" fill="#BBB9B9"/>
<path d="M138.58 452.739V456.938C138.58 457.285 138.654 457.532 138.801 457.679C138.948 457.818 139.204 457.887 139.568 457.887H140.439V458.888H139.373C138.714 458.888 138.22 458.737 137.891 458.433C137.562 458.13 137.397 457.632 137.397 456.938V452.739H136.474V451.764H137.397V449.97H138.58V451.764H140.439V452.739H138.58Z" fill="#BBB9B9"/>
<path d="M148.372 455.053C148.372 455.279 148.359 455.517 148.333 455.768H142.639C142.683 456.47 142.921 457.021 143.354 457.419C143.796 457.809 144.329 458.004 144.953 458.004C145.465 458.004 145.889 457.887 146.227 457.653C146.574 457.411 146.817 457.09 146.955 456.691H148.229C148.039 457.376 147.657 457.935 147.085 458.368C146.513 458.793 145.803 459.005 144.953 459.005C144.277 459.005 143.671 458.854 143.133 458.55C142.605 458.247 142.189 457.818 141.885 457.263C141.582 456.7 141.43 456.05 141.43 455.313C141.43 454.577 141.578 453.931 141.872 453.376C142.167 452.822 142.579 452.397 143.107 452.102C143.645 451.799 144.26 451.647 144.953 451.647C145.629 451.647 146.227 451.795 146.747 452.089C147.267 452.384 147.666 452.791 147.943 453.311C148.229 453.823 148.372 454.403 148.372 455.053ZM147.15 454.806C147.15 454.356 147.051 453.97 146.851 453.649C146.652 453.32 146.379 453.073 146.032 452.908C145.694 452.735 145.317 452.648 144.901 452.648C144.303 452.648 143.792 452.839 143.367 453.22C142.951 453.602 142.713 454.13 142.652 454.806H147.15Z" fill="#BBB9B9"/>
<path d="M152.456 459.005C151.91 459.005 151.42 458.914 150.987 458.732C150.554 458.542 150.211 458.282 149.96 457.952C149.709 457.614 149.57 457.229 149.544 456.795H150.766C150.801 457.151 150.965 457.441 151.26 457.666C151.563 457.892 151.958 458.004 152.443 458.004C152.894 458.004 153.249 457.905 153.509 457.705C153.769 457.506 153.899 457.255 153.899 456.951C153.899 456.639 153.76 456.41 153.483 456.262C153.206 456.106 152.777 455.955 152.196 455.807C151.667 455.669 151.234 455.53 150.896 455.391C150.567 455.244 150.281 455.032 150.038 454.754C149.804 454.468 149.687 454.096 149.687 453.636C149.687 453.272 149.795 452.939 150.012 452.635C150.229 452.332 150.536 452.094 150.935 451.92C151.334 451.738 151.789 451.647 152.3 451.647C153.089 451.647 153.726 451.847 154.211 452.245C154.696 452.644 154.956 453.19 154.991 453.883H153.808C153.782 453.511 153.63 453.212 153.353 452.986C153.084 452.761 152.72 452.648 152.261 452.648C151.836 452.648 151.498 452.739 151.247 452.921C150.996 453.103 150.87 453.342 150.87 453.636C150.87 453.87 150.944 454.065 151.091 454.221C151.247 454.369 151.438 454.49 151.663 454.585C151.897 454.672 152.218 454.772 152.625 454.884C153.136 455.023 153.552 455.162 153.873 455.3C154.194 455.43 154.467 455.63 154.692 455.898C154.926 456.167 155.047 456.518 155.056 456.951C155.056 457.341 154.948 457.692 154.731 458.004C154.514 458.316 154.207 458.563 153.808 458.745C153.418 458.919 152.967 459.005 152.456 459.005Z" fill="#BBB9B9"/>
<rect x="10.3825" y="400.333" width="162.651" height="84.915" rx="17.9775" stroke="#C7C7C7" stroke-width="0.765" shape-rendering="crispEdges"/>
</g>
<g filter="url(#filter6_dd_1494_1050)">
<rect x="419" y="336.951" width="177.899" height="85.68" rx="18.36" fill="white" shape-rendering="crispEdges"/>
<rect x="437.359" y="355.311" width="48.96" height="48.96" rx="12" fill="#8C52FF"/>
<g clip-path="url(#clip0_1494_1050)">
<path d="M445.341 379.787C445.403 375.685 446.731 372.106 449.693 369.234C451.838 367.155 454.455 366.02 457.362 365.513C459.538 365.14 461.683 365.211 463.789 365.886C467.403 367.044 470.161 369.305 472.078 372.598C473.501 375.05 474.137 377.716 473.996 380.556C473.972 381.064 473.886 381.564 473.831 382.064C473.807 382.278 473.697 382.453 473.532 382.595C472.094 383.865 470.648 385.134 469.218 386.412C469.014 386.594 468.881 386.57 468.7 386.38C468.346 385.999 467.977 385.634 467.608 385.277C466.476 384.198 464.732 384.214 463.624 385.317C462.501 386.436 462.43 388.268 463.498 389.403C464.386 390.347 465.313 391.252 466.217 392.172C466.531 392.489 466.531 392.505 466.138 392.704C463.993 393.807 461.715 394.394 459.303 394.259C455.382 394.037 451.909 392.72 449.159 389.784C447.101 387.61 445.938 384.976 445.498 382.008C445.388 381.27 445.333 380.532 445.341 379.787ZM459.075 375.716C459.075 376.994 459.075 378.263 459.075 379.541C459.075 380.159 459.279 380.366 459.892 380.366C461.157 380.366 462.414 380.366 463.679 380.366C464.206 380.366 464.732 380.374 465.258 380.366C465.761 380.35 466.036 379.937 465.816 379.541C465.675 379.279 465.423 379.239 465.156 379.239C463.663 379.239 462.171 379.239 460.678 379.239C460.175 379.239 460.167 379.239 460.167 378.723C460.167 376.526 460.167 374.32 460.167 372.122C460.167 371.971 460.167 371.828 460.159 371.678C460.143 371.384 459.971 371.217 459.703 371.178C459.413 371.138 459.208 371.305 459.122 371.582C459.083 371.709 459.091 371.852 459.091 371.987C459.091 373.233 459.091 374.486 459.091 375.732L459.075 375.716ZM452.349 387.959C452.349 387.483 452.011 387.158 451.54 387.15C451.068 387.15 450.723 387.483 450.715 387.951C450.715 388.419 451.076 388.776 451.556 388.776C452.035 388.776 452.349 388.451 452.349 387.959ZM471.898 379.779C471.89 379.334 471.513 378.953 471.073 378.961C470.633 378.961 470.263 379.35 470.256 379.795C470.256 380.255 470.656 380.643 471.104 380.628C471.544 380.612 471.906 380.223 471.898 379.779ZM459.593 392.18C460.065 392.196 460.426 391.871 460.442 391.402C460.458 390.926 460.136 390.553 459.688 390.522C459.248 390.49 458.863 390.855 458.847 391.315C458.831 391.799 459.146 392.164 459.601 392.188L459.593 392.18ZM459.625 367.417C459.161 367.417 458.839 367.774 458.839 368.25C458.839 368.718 459.201 369.083 459.648 369.075C460.096 369.075 460.442 368.694 460.434 368.226C460.434 367.75 460.088 367.409 459.625 367.409V367.417ZM451.563 372.439C452.035 372.439 452.357 372.09 452.349 371.606C452.341 371.138 451.988 370.813 451.508 370.821C451.061 370.821 450.707 371.178 450.707 371.614C450.707 372.082 451.084 372.447 451.563 372.439ZM467.733 370.821C467.238 370.821 466.924 371.122 466.932 371.614C466.932 372.098 467.262 372.431 467.726 372.439C468.213 372.439 468.527 372.122 468.527 371.638C468.527 371.154 468.213 370.829 467.733 370.821ZM447.376 379.763C447.36 380.239 447.69 380.596 448.153 380.612C448.617 380.62 448.947 380.31 448.963 379.842C448.986 379.35 448.672 378.993 448.208 378.977C447.737 378.961 447.383 379.295 447.368 379.763H447.376Z" fill="white"/>
<path d="M465.635 385.626C466.209 385.611 466.649 385.88 467.034 386.269C467.584 386.817 468.134 387.364 468.668 387.927C468.857 388.126 468.975 388.11 469.171 387.927C471.151 386.158 473.147 384.397 475.142 382.643C476.054 381.842 477.044 381.913 477.83 382.802C478.568 383.643 478.497 384.777 477.641 385.539C475.158 387.745 472.667 389.943 470.169 392.133C469.375 392.831 468.393 392.815 467.655 392.077C466.547 390.974 465.447 389.863 464.355 388.745C463.789 388.157 463.632 387.459 463.97 386.698C464.284 385.983 464.865 385.642 465.627 385.626H465.635Z" fill="white"/>
</g>
<path d="M501.912 391.237C501.912 391.933 501.672 392.513 501.192 392.977C500.72 393.433 499.996 393.661 499.02 393.661H497.412V397.153H496.32V388.789H499.02C499.964 388.789 500.68 389.017 501.168 389.473C501.664 389.929 501.912 390.517 501.912 391.237ZM499.02 392.761C499.628 392.761 500.076 392.629 500.364 392.365C500.652 392.101 500.796 391.725 500.796 391.237C500.796 390.205 500.204 389.689 499.02 389.689H497.412V392.761H499.02Z" fill="#BBB9B9"/>
<path d="M504.362 391.645C504.554 391.269 504.826 390.977 505.178 390.769C505.538 390.561 505.974 390.457 506.486 390.457V391.585H506.198C504.974 391.585 504.362 392.249 504.362 393.577V397.153H503.27V390.577H504.362V391.645Z" fill="#BBB9B9"/>
<path d="M510.614 397.261C509.998 397.261 509.438 397.121 508.934 396.841C508.438 396.561 508.046 396.165 507.758 395.653C507.478 395.133 507.338 394.533 507.338 393.853C507.338 393.181 507.482 392.589 507.77 392.077C508.066 391.557 508.466 391.161 508.97 390.889C509.474 390.609 510.038 390.469 510.662 390.469C511.286 390.469 511.85 390.609 512.354 390.889C512.858 391.161 513.254 391.553 513.542 392.065C513.838 392.577 513.986 393.173 513.986 393.853C513.986 394.533 513.834 395.133 513.53 395.653C513.234 396.165 512.83 396.561 512.318 396.841C511.806 397.121 511.238 397.261 510.614 397.261ZM510.614 396.301C511.006 396.301 511.374 396.209 511.718 396.025C512.062 395.841 512.338 395.565 512.546 395.197C512.762 394.829 512.87 394.381 512.87 393.853C512.87 393.325 512.766 392.877 512.558 392.509C512.35 392.141 512.078 391.869 511.742 391.693C511.406 391.509 511.042 391.417 510.65 391.417C510.25 391.417 509.882 391.509 509.546 391.693C509.218 391.869 508.954 392.141 508.754 392.509C508.554 392.877 508.454 393.325 508.454 393.853C508.454 394.389 508.55 394.841 508.742 395.209C508.942 395.577 509.206 395.853 509.534 396.037C509.862 396.213 510.222 396.301 510.614 396.301Z" fill="#BBB9B9"/>
<path d="M515.014 393.841C515.014 393.169 515.15 392.581 515.422 392.077C515.694 391.565 516.066 391.169 516.538 390.889C517.018 390.609 517.554 390.469 518.146 390.469C518.658 390.469 519.134 390.589 519.574 390.829C520.014 391.061 520.35 391.369 520.582 391.753V388.273H521.686V397.153H520.582V395.917C520.366 396.309 520.046 396.633 519.622 396.889C519.198 397.137 518.702 397.261 518.134 397.261C517.55 397.261 517.018 397.117 516.538 396.829C516.066 396.541 515.694 396.137 515.422 395.617C515.15 395.097 515.014 394.505 515.014 393.841ZM520.582 393.853C520.582 393.357 520.482 392.925 520.282 392.557C520.082 392.189 519.81 391.909 519.466 391.717C519.13 391.517 518.758 391.417 518.35 391.417C517.942 391.417 517.57 391.513 517.234 391.705C516.898 391.897 516.63 392.177 516.43 392.545C516.23 392.913 516.13 393.345 516.13 393.841C516.13 394.345 516.23 394.785 516.43 395.161C516.63 395.529 516.898 395.813 517.234 396.013C517.57 396.205 517.942 396.301 518.35 396.301C518.758 396.301 519.13 396.205 519.466 396.013C519.81 395.813 520.082 395.529 520.282 395.161C520.482 394.785 520.582 394.349 520.582 393.853Z" fill="#BBB9B9"/>
<path d="M529.363 390.577V397.153H528.271V396.181C528.063 396.517 527.771 396.781 527.395 396.973C527.027 397.157 526.619 397.249 526.171 397.249C525.659 397.249 525.199 397.145 524.791 396.937C524.383 396.721 524.059 396.401 523.819 395.977C523.587 395.553 523.471 395.037 523.471 394.429V390.577H524.551V394.285C524.551 394.933 524.715 395.433 525.043 395.785C525.371 396.129 525.819 396.301 526.387 396.301C526.971 396.301 527.431 396.121 527.767 395.761C528.103 395.401 528.271 394.877 528.271 394.189V390.577H529.363Z" fill="#BBB9B9"/>
<path d="M532.539 391.477V395.353C532.539 395.673 532.607 395.901 532.743 396.037C532.879 396.165 533.115 396.229 533.451 396.229H534.255V397.153H533.271C532.663 397.153 532.207 397.013 531.903 396.733C531.599 396.453 531.447 395.993 531.447 395.353V391.477H530.595V390.577H531.447V388.921H532.539V390.577H534.255V391.477H532.539Z" fill="#BBB9B9"/>
<path d="M536.142 389.509C535.934 389.509 535.758 389.437 535.614 389.293C535.47 389.149 535.398 388.973 535.398 388.765C535.398 388.557 535.47 388.381 535.614 388.237C535.758 388.093 535.934 388.021 536.142 388.021C536.342 388.021 536.51 388.093 536.646 388.237C536.79 388.381 536.862 388.557 536.862 388.765C536.862 388.973 536.79 389.149 536.646 389.293C536.51 389.437 536.342 389.509 536.142 389.509ZM536.67 390.577V397.153H535.578V390.577H536.67Z" fill="#BBB9B9"/>
<path d="M540.979 396.145L543.019 390.577H544.183L541.603 397.153H540.331L537.751 390.577H538.927L540.979 396.145Z" fill="#BBB9B9"/>
<path d="M545.822 389.509C545.614 389.509 545.438 389.437 545.294 389.293C545.15 389.149 545.078 388.973 545.078 388.765C545.078 388.557 545.15 388.381 545.294 388.237C545.438 388.093 545.614 388.021 545.822 388.021C546.022 388.021 546.19 388.093 546.326 388.237C546.47 388.381 546.542 388.557 546.542 388.765C546.542 388.973 546.47 389.149 546.326 389.293C546.19 389.437 546.022 389.509 545.822 389.509ZM546.35 390.577V397.153H545.258V390.577H546.35Z" fill="#BBB9B9"/>
<path d="M547.803 393.841C547.803 393.169 547.939 392.581 548.211 392.077C548.483 391.565 548.855 391.169 549.327 390.889C549.807 390.609 550.343 390.469 550.935 390.469C551.447 390.469 551.923 390.589 552.363 390.829C552.803 391.061 553.139 391.369 553.371 391.753V388.273H554.475V397.153H553.371V395.917C553.155 396.309 552.835 396.633 552.411 396.889C551.987 397.137 551.491 397.261 550.923 397.261C550.339 397.261 549.807 397.117 549.327 396.829C548.855 396.541 548.483 396.137 548.211 395.617C547.939 395.097 547.803 394.505 547.803 393.841ZM553.371 393.853C553.371 393.357 553.271 392.925 553.071 392.557C552.871 392.189 552.599 391.909 552.255 391.717C551.919 391.517 551.547 391.417 551.139 391.417C550.731 391.417 550.359 391.513 550.023 391.705C549.687 391.897 549.419 392.177 549.219 392.545C549.019 392.913 548.919 393.345 548.919 393.841C548.919 394.345 549.019 394.785 549.219 395.161C549.419 395.529 549.687 395.813 550.023 396.013C550.359 396.205 550.731 396.301 551.139 396.301C551.547 396.301 551.919 396.205 552.255 396.013C552.599 395.813 552.871 395.529 553.071 395.161C553.271 394.785 553.371 394.349 553.371 393.853Z" fill="#BBB9B9"/>
<path d="M555.912 393.841C555.912 393.169 556.048 392.581 556.32 392.077C556.592 391.565 556.964 391.169 557.436 390.889C557.916 390.609 558.448 390.469 559.032 390.469C559.608 390.469 560.108 390.593 560.532 390.841C560.956 391.089 561.272 391.401 561.48 391.777V390.577H562.584V397.153H561.48V395.929C561.264 396.313 560.94 396.633 560.508 396.889C560.084 397.137 559.588 397.261 559.02 397.261C558.436 397.261 557.908 397.117 557.436 396.829C556.964 396.541 556.592 396.137 556.32 395.617C556.048 395.097 555.912 394.505 555.912 393.841ZM561.48 393.853C561.48 393.357 561.38 392.925 561.18 392.557C560.98 392.189 560.708 391.909 560.364 391.717C560.028 391.517 559.656 391.417 559.248 391.417C558.84 391.417 558.468 391.513 558.132 391.705C557.796 391.897 557.528 392.177 557.328 392.545C557.128 392.913 557.028 393.345 557.028 393.841C557.028 394.345 557.128 394.785 557.328 395.161C557.528 395.529 557.796 395.813 558.132 396.013C558.468 396.205 558.84 396.301 559.248 396.301C559.656 396.301 560.028 396.205 560.364 396.013C560.708 395.813 560.98 395.529 561.18 395.161C561.38 394.785 561.48 394.349 561.48 393.853Z" fill="#BBB9B9"/>
<path d="M564.022 393.841C564.022 393.169 564.158 392.581 564.43 392.077C564.702 391.565 565.074 391.169 565.546 390.889C566.026 390.609 566.562 390.469 567.154 390.469C567.666 390.469 568.142 390.589 568.582 390.829C569.022 391.061 569.358 391.369 569.59 391.753V388.273H570.694V397.153H569.59V395.917C569.374 396.309 569.054 396.633 568.63 396.889C568.206 397.137 567.71 397.261 567.142 397.261C566.558 397.261 566.026 397.117 565.546 396.829C565.074 396.541 564.702 396.137 564.43 395.617C564.158 395.097 564.022 394.505 564.022 393.841ZM569.59 393.853C569.59 393.357 569.49 392.925 569.29 392.557C569.09 392.189 568.818 391.909 568.474 391.717C568.138 391.517 567.766 391.417 567.358 391.417C566.95 391.417 566.578 391.513 566.242 391.705C565.906 391.897 565.638 392.177 565.438 392.545C565.238 392.913 565.138 393.345 565.138 393.841C565.138 394.345 565.238 394.785 565.438 395.161C565.638 395.529 565.906 395.813 566.242 396.013C566.578 396.205 566.95 396.301 567.358 396.301C567.766 396.301 568.138 396.205 568.474 396.013C568.818 395.813 569.09 395.529 569.29 395.161C569.49 394.785 569.59 394.349 569.59 393.853Z" fill="#BBB9B9"/>
<path d="M578.539 393.613C578.539 393.821 578.527 394.041 578.503 394.273H573.247C573.287 394.921 573.507 395.429 573.907 395.797C574.315 396.157 574.807 396.337 575.383 396.337C575.855 396.337 576.247 396.229 576.559 396.013C576.879 395.789 577.103 395.493 577.231 395.125H578.407C578.231 395.757 577.879 396.273 577.351 396.673C576.823 397.065 576.167 397.261 575.383 397.261C574.759 397.261 574.199 397.121 573.703 396.841C573.215 396.561 572.831 396.165 572.551 395.653C572.271 395.133 572.131 394.533 572.131 393.853C572.131 393.173 572.267 392.577 572.539 392.065C572.811 391.553 573.191 391.161 573.679 390.889C574.175 390.609 574.743 390.469 575.383 390.469C576.007 390.469 576.559 390.605 577.039 390.877C577.519 391.149 577.887 391.525 578.143 392.005C578.407 392.477 578.539 393.013 578.539 393.613ZM577.411 393.385C577.411 392.969 577.319 392.613 577.135 392.317C576.951 392.013 576.699 391.785 576.379 391.633C576.067 391.473 575.719 391.393 575.335 391.393C574.783 391.393 574.311 391.569 573.919 391.921C573.535 392.273 573.315 392.761 573.259 393.385H577.411Z" fill="#BBB9B9"/>
<path d="M509.919 373.073H505.383V377.729H502.215V373.073H497.679V370.145H502.215V365.489H505.383V370.145H509.919V373.073Z" fill="#34196A"/>
<path d="M524.915 365.561H517.139V369.665C517.475 369.249 517.955 368.913 518.579 368.657C519.203 368.385 519.867 368.249 520.571 368.249C521.851 368.249 522.899 368.529 523.715 369.089C524.531 369.649 525.123 370.369 525.491 371.249C525.859 372.113 526.043 373.041 526.043 374.033C526.043 375.873 525.515 377.353 524.459 378.473C523.419 379.593 521.931 380.153 519.995 380.153C518.171 380.153 516.715 379.697 515.627 378.785C514.539 377.873 513.923 376.681 513.779 375.209H517.043C517.187 375.849 517.507 376.361 518.003 376.745C518.515 377.129 519.163 377.321 519.947 377.321C520.891 377.321 521.603 377.025 522.083 376.433C522.563 375.841 522.803 375.057 522.803 374.081C522.803 373.089 522.555 372.337 522.059 371.825C521.579 371.297 520.867 371.033 519.923 371.033C519.251 371.033 518.691 371.201 518.243 371.537C517.795 371.873 517.475 372.321 517.283 372.881H514.067V362.609H524.915V365.561Z" fill="#34196A"/>
<path d="M528.6 371.177C528.6 368.409 529.096 366.241 530.088 364.673C531.096 363.105 532.76 362.321 535.08 362.321C537.4 362.321 539.056 363.105 540.048 364.673C541.056 366.241 541.56 368.409 541.56 371.177C541.56 373.961 541.056 376.145 540.048 377.729C539.056 379.313 537.4 380.105 535.08 380.105C532.76 380.105 531.096 379.313 530.088 377.729C529.096 376.145 528.6 373.961 528.6 371.177ZM538.248 371.177C538.248 369.993 538.168 369.001 538.008 368.201C537.864 367.385 537.56 366.721 537.096 366.209C536.648 365.697 535.976 365.441 535.08 365.441C534.184 365.441 533.504 365.697 533.04 366.209C532.592 366.721 532.288 367.385 532.128 368.201C531.984 369.001 531.912 369.993 531.912 371.177C531.912 372.393 531.984 373.417 532.128 374.249C532.272 375.065 532.576 375.729 533.04 376.241C533.504 376.737 534.184 376.985 535.08 376.985C535.976 376.985 536.656 376.737 537.12 376.241C537.584 375.729 537.888 375.065 538.032 374.249C538.176 373.417 538.248 372.393 538.248 371.177Z" fill="#34196A"/>
<path d="M543.732 366.953C543.732 365.737 544.084 364.785 544.788 364.097C545.508 363.409 546.428 363.065 547.548 363.065C548.668 363.065 549.58 363.409 550.284 364.097C551.004 364.785 551.364 365.737 551.364 366.953C551.364 368.185 551.004 369.145 550.284 369.833C549.58 370.521 548.668 370.865 547.548 370.865C546.428 370.865 545.508 370.521 544.788 369.833C544.084 369.145 543.732 368.185 543.732 366.953ZM559.14 363.353L549.708 380.153H546.444L555.852 363.353H559.14ZM547.524 365.081C546.644 365.081 546.204 365.705 546.204 366.953C546.204 368.217 546.644 368.849 547.524 368.849C547.956 368.849 548.292 368.697 548.532 368.393C548.772 368.073 548.892 367.593 548.892 366.953C548.892 365.705 548.436 365.081 547.524 365.081ZM554.268 376.529C554.268 375.297 554.62 374.345 555.324 373.673C556.044 372.985 556.964 372.641 558.084 372.641C559.204 372.641 560.108 372.985 560.796 373.673C561.5 374.345 561.852 375.297 561.852 376.529C561.852 377.761 561.5 378.721 560.796 379.409C560.108 380.097 559.204 380.441 558.084 380.441C556.948 380.441 556.028 380.097 555.324 379.409C554.62 378.721 554.268 377.761 554.268 376.529ZM558.06 374.657C557.148 374.657 556.692 375.281 556.692 376.529C556.692 377.793 557.148 378.425 558.06 378.425C558.956 378.425 559.404 377.793 559.404 376.529C559.404 375.281 558.956 374.657 558.06 374.657Z" fill="#34196A"/>
<rect x="419.382" y="337.333" width="177.134" height="84.915" rx="17.9775" stroke="#C7C7C7" stroke-width="0.765" shape-rendering="crispEdges"/>
</g>
<g filter="url(#filter7_dd_1494_1050)">
<rect x="266" y="39" width="176.316" height="55.507" rx="6" fill="white"/>
</g>
<circle cx="294.57" cy="66.7533" r="16.3256" fill="#FFACE0"/>
<circle cx="320.691" cy="66.7533" r="18.3256" fill="#8A51FB" stroke="white" stroke-width="4"/>
<circle cx="346.812" cy="66.7533" r="18.3256" fill="#EFE000" stroke="white" stroke-width="4"/>
<rect x="372.932" y="55.3252" width="50.6093" height="11.4279" rx="2" fill="#FFACE0"/>
<rect x="372.932" y="73.2842" width="41.6302" height="4.89767" rx="2.44884" fill="#FFACE0"/>
<g clip-path="url(#clip1_1494_1050)">
<path d="M206.23 253.38L382.54 259.08L339.85 165.33L262.94 166.04L206.23 253.38Z" fill="#EEDF00"/>
<g filter="url(#filter8_dd_1494_1050)">
<path d="M386.471 326.34L416.161 336.77L402.561 398.4C402.121 400.39 399.451 400.8 398.441 399.03L385.831 376.99C382.041 370.37 375.871 365.45 368.581 363.23L360.811 360.87L386.461 326.36L386.471 326.34Z" fill="#FEABDF"/>
<path d="M412.311 337.1C407.831 357.15 403.361 377.19 398.881 397.24" stroke="white" stroke-linecap="round" stroke-linejoin="round"/>
</g>
<g filter="url(#filter9_d_1494_1050)">
<path d="M266.64 438.91L261.72 463.24L200.49 491.17C198.42 492.12 196.36 489.82 197.54 487.86L215.13 458.57C219.9 450.62 223.24 441.89 224.99 432.79L225.4 430.65L266.65 438.91H266.64Z" fill="#FEABDF"/>
</g>
<path d="M198.881 488.31C219.751 478.08 240.621 467.86 261.501 457.63" stroke="white" stroke-linecap="round" stroke-linejoin="round"/>
<g filter="url(#filter10_dd_1494_1050)">
<path d="M341.35 306.84C351.58 276.26 353.95 243.41 348.92 211.56L265.78 214.66C258.74 243.89 250.57 271.27 243.52 300.51C232.62 345.76 226.09 393.67 219.66 439.78C236.39 442.65 252.6 446.06 269.33 448.93C278.27 413.91 284.52 378.02 288.76 342.13C293.15 346.4 298.64 349.79 304.63 351.06C329.1 356.23 352.06 365.14 375.97 372.48C380.82 356.61 386.63 340.43 391.48 324.56C375.47 316.72 358.7 310.9 341.34 306.84H341.35Z" fill="#2E2E2E"/>
<path d="M298.21 256.84C293.89 275.04 289.56 293.24 285.24 311.43C282.68 322.2 282.45 333.96 288.78 343.04" stroke="#010100" stroke-linecap="round" stroke-linejoin="round"/>
<path d="M341.59 306.41C340.33 308.84 339.07 311.27 337.82 313.7C352.94 316.38 367.67 321 381.6 327.46" stroke="#010100" stroke-linecap="round" stroke-linejoin="round"/>
<path d="M383.359 321.67C378.029 337.27 372.689 352.87 367.359 368.48" stroke="#010100" stroke-linecap="round" stroke-linejoin="round"/>
<path d="M221.32 429.43L272.19 438.61" stroke="#010100" stroke-linecap="round" stroke-linejoin="round"/>
<path d="M284.41 333.62C280.34 368.25 273.9 402.61 265.15 436.36" stroke="#010100" stroke-linecap="round" stroke-linejoin="round"/>
<path d="M272.16 215.72C268 222.7 263.84 229.67 259.68 236.65" stroke="#010100" stroke-linecap="round" stroke-linejoin="round"/>
<path d="M333.84 218.62C334.57 227.57 341.18 235.76 349.78 238.36" stroke="#010100" stroke-linecap="round" stroke-linejoin="round"/>
</g>
<path d="M327.44 139.85C321.78 139.65 315.94 139.87 310.28 139.67C309.64 142.08 307.29 143.92 304.8 143.99C302.31 144.05 299.18 142.74 298.42 140.36C293.39 141.08 288.35 141.79 283.31 142.51C274.28 149.72 267.32 160.26 264.62 171.49C261.81 183.16 261.91 194.99 260.74 206.94C260.41 210.29 262.34 213.37 264.89 215.57L344.19 219.72C339.98 192.66 334.19 166.39 327.44 139.85Z" fill="white"/>
<path d="M289.971 142.98C292.961 147.69 298.611 150.57 304.171 150.23C309.741 149.89 314.991 146.33 317.381 141.29" stroke="#010100" stroke-linecap="round" stroke-linejoin="round"/>
<path d="M284 153.26C284.75 153.93 285.51 154.6 286.26 155.27" stroke="#34BBAA" stroke-linecap="round" stroke-linejoin="round"/>
<path d="M295.49 158.25C295.08 159.01 294.67 159.77 294.25 160.52" stroke="#34BBAA" stroke-linecap="round" stroke-linejoin="round"/>
<path d="M284.5 166.34C283.75 166.51 282.99 166.68 282.24 166.84" stroke="#34BBAA" stroke-linecap="round" stroke-linejoin="round"/>
<path d="M295.818 174.13L297.828 177.15" stroke="#34BBAA" stroke-linecap="round" stroke-linejoin="round"/>
<path d="M273.43 179.67C274.02 180.42 274.6 181.18 275.19 181.93" stroke="#34BBAA" stroke-linecap="round" stroke-linejoin="round"/>
<path d="M285.709 186.42C286.549 185.25 287.389 184.08 288.229 182.9" stroke="#34BBAA" stroke-linecap="round" stroke-linejoin="round"/>
<path d="M271.68 193.69C270.34 193.51 269 193.34 267.66 193.16" stroke="#34BBAA" stroke-linecap="round" stroke-linejoin="round"/>
<path d="M275.479 203.8C275.659 205.31 275.839 206.81 276.019 208.32" stroke="#34BBAA" stroke-linecap="round" stroke-linejoin="round"/>
<path d="M289.029 202.8C290.199 202.46 291.379 202.13 292.549 201.79" stroke="#34BBAA" stroke-linecap="round" stroke-linejoin="round"/>
<path d="M301.029 191.96C301.459 190.96 301.879 189.95 302.309 188.95" stroke="#34BBAA" stroke-linecap="round" stroke-linejoin="round"/>
<path d="M311.389 184C312.309 184.25 313.229 184.51 314.149 184.76" stroke="#34BBAA" stroke-linecap="round" stroke-linejoin="round"/>
<path d="M309.648 194.76C309.568 196.1 309.478 197.44 309.398 198.78" stroke="#34BBAA" stroke-linecap="round" stroke-linejoin="round"/>
<path d="M302.609 208.34C302.949 209.26 303.279 210.18 303.619 211.11" stroke="#34BBAA" stroke-linecap="round" stroke-linejoin="round"/>
<path d="M320.449 210.56C321.619 210.23 322.799 209.9 323.969 209.57" stroke="#34BBAA" stroke-linecap="round" stroke-linejoin="round"/>
<path d="M324.229 196.77H328.499" stroke="#34BBAA" stroke-linecap="round" stroke-linejoin="round"/>
<path d="M323.25 171.12C322.84 172.63 322.42 174.14 322.01 175.65" stroke="#34BBAA" stroke-linecap="round" stroke-linejoin="round"/>
<path d="M306.379 166.84C306.799 167.59 307.219 168.35 307.639 169.1" stroke="#34BBAA" stroke-linecap="round" stroke-linejoin="round"/>
<path d="M316.18 155.27C317.19 154.68 318.19 154.1 319.2 153.51" stroke="#34BBAA" stroke-linecap="round" stroke-linejoin="round"/>
<path d="M306.629 154.02V155.53" stroke="#34BBAA" stroke-linecap="round" stroke-linejoin="round"/>
<path d="M334.049 212.91C335.219 212.57 336.389 212.23 337.569 211.89" stroke="#34BBAA" stroke-linecap="round" stroke-linejoin="round"/>
<path d="M265.279 208.62C265.549 209.45 265.819 210.28 266.089 211.12" stroke="#34BBAA" stroke-linecap="round" stroke-linejoin="round"/>
<path d="M490.819 150.08C488.589 150.47 486.509 150.9 484.279 151.29C485.589 149.99 486.759 148.59 488.069 147.29C488.829 146.53 488.869 145.02 488.189 144.19C480.279 148.74 471.189 151.98 462.329 154.19C453.569 156.37 444.149 156.25 435.539 158.93L441.079 185.83C443.879 184.7 446.829 183.6 449.619 182.47C455.819 183.79 461.229 180.66 466.429 177.03C471.549 173.45 476.939 169.62 482.059 166.04C481.779 165.04 480.759 164.38 479.729 164.22C478.699 164.06 477.829 164.34 476.809 164.58C472.249 165.66 467.869 166.53 463.319 167.61C464.569 166.28 465.819 164.95 467.069 163.62C467.069 163.62 471.159 161.89 476.019 159.7C478.049 159.64 480.079 159.59 482.119 159.53C482.749 159.51 483.399 159.49 483.969 159.24C484.549 158.99 485.189 158.36 485.199 157.73C484.159 157.45 483.129 157.17 482.089 156.88C484.489 155.73 486.749 154.59 488.489 153.61C489.829 152.85 490.979 151.59 490.809 150.07L490.819 150.08Z" fill="#F5747B"/>
<path d="M466.949 154.15C473.169 153.94 479.359 152.86 485.279 150.94" stroke="#010100" stroke-linecap="round" stroke-linejoin="round"/>
<path d="M475.85 159.89C478.32 158.71 480.79 157.53 483.26 156.35" stroke="#010100" stroke-linecap="round" stroke-linejoin="round"/>
<path d="M463.569 167.53C462.689 167.88 461.819 168.22 460.939 168.57" stroke="#010100" stroke-linecap="round" stroke-linejoin="round"/>
<path d="M276.449 108.55C276.039 112.32 277.389 116.25 280.029 118.97C282.669 121.69 286.559 123.15 290.339 122.85" stroke="#010100" stroke-linecap="round" stroke-linejoin="round"/>
<path d="M341.35 89.5C342.55 91.98 342.63 94.98 341.57 97.52C340.51 100.06 338.32 102.11 335.71 103C333.6 103.72 331.32 103.69 329.09 103.65C326.86 103.61 324.59 103.56 322.46 104.23C320.33 104.9 318.35 106.44 317.76 108.59" stroke="#010100" stroke-linecap="round" stroke-linejoin="round"/>
<path d="M365.869 89.12L359.859 89.14C360.019 91.65 359.549 94.47 358.459 96.56C358.529 94.06 358.199 91.55 357.509 89.15L343.919 89.19C344.659 92.4 343.969 95.91 342.069 98.59C340.169 101.27 337.079 103.09 333.809 103.45C329.859 103.88 325.919 102.29 321.959 102.53C318.579 102.73 315.309 104.32 313.069 106.85C311.199 108.96 310.069 111.71 309.859 114.52C309.399 114.2 308.919 113.91 308.409 113.66C307.709 111.72 306.719 110 306.019 108.05L285.749 108.21C285.239 110.01 285.249 112.06 285.809 113.74C284.449 112.23 283.629 110.25 283.469 108.22L278.729 108.26C277.739 111.73 278.479 115.65 280.669 118.52C282.859 121.39 286.429 123.15 290.039 123.12C292.059 127.35 295.919 130.75 300.529 131.63C305.139 132.51 310.129 131.08 313.569 127.88C315.549 126.04 314.799 121.94 313.799 119.44C313.469 118.62 313.029 117.85 312.519 117.14C313.699 115.73 315.449 114.94 317.399 114.85C319.979 114.72 322.509 115.66 324.799 116.86C327.089 118.06 329.229 119.55 331.569 120.64C337.439 123.39 344.449 123.53 350.479 121.16C356.519 118.79 361.519 113.98 364.279 108.11C367.039 102.24 367.559 95.38 365.879 89.12H365.869Z" fill="#010100"/>
<path d="M314.419 141.21C313.479 141.23 312.619 141.11 311.679 141.13C311.329 138.49 310.999 136.11 310.649 133.47C312.669 133.48 314.649 132.24 315.509 130.41C316.369 128.58 316.069 126.26 314.759 124.71C313.459 123.16 311.179 122.68 309.229 123.21C309.049 123.78 308.799 124.58 308.619 125.15C305.759 126.06 302.509 125.65 299.979 124.05C297.449 122.45 295.669 119.69 295.259 116.72C292.299 117.22 289.689 119.32 289.099 122.26C288.479 125.38 287.889 128.45 288.289 131.61C288.769 135.43 292.579 138.32 296.399 138.72C296.429 139.88 296.529 140.82 296.559 141.98C295.679 142.03 294.739 142.53 293.859 142.58C296.179 145.83 300.119 147.78 304.109 147.55C308.099 147.32 312.479 144.7 314.419 141.2V141.21Z" fill="#F5747B"/>
<path d="M291.588 128.36C292.14 128.36 292.588 127.912 292.588 127.36C292.588 126.808 292.14 126.36 291.588 126.36C291.036 126.36 290.588 126.808 290.588 127.36C290.588 127.912 291.036 128.36 291.588 128.36Z" fill="#010100"/>
<path d="M301.789 128.64C302.341 128.64 302.789 128.192 302.789 127.64C302.789 127.088 302.341 126.64 301.789 126.64C301.237 126.64 300.789 127.088 300.789 127.64C300.789 128.192 301.237 128.64 301.789 128.64Z" fill="#010100"/>
<path d="M295.629 126.92C295.439 127.93 295.249 128.93 295.059 129.94C295.399 129.94 295.609 130.19 295.939 130.19" stroke="#010100" stroke-linecap="round" stroke-linejoin="round"/>
<path d="M297.889 131.38C298.009 131.79 298.459 132.07 298.879 131.99C299.299 131.91 299.619 131.49 299.579 131.07" stroke="#010100" stroke-linecap="round" stroke-linejoin="round"/>
<path d="M310.408 127.51C311.158 127.12 311.908 126.74 312.658 126.35" stroke="#010100" stroke-linecap="round" stroke-linejoin="round"/>
<path d="M309.898 133.65C310.238 133.63 310.568 133.61 310.908 133.59" stroke="#010100" stroke-linecap="round" stroke-linejoin="round"/>
<path d="M295.93 139.07C299.31 139.62 302.87 138.91 305.79 137.12" stroke="#010100" stroke-linecap="round" stroke-linejoin="round"/>
<path d="M295.139 116.55C294.749 119.19 295.769 122 297.759 123.77" stroke="#010100" stroke-linecap="round" stroke-linejoin="round"/>
<path d="M289.699 122.48C290.059 121.8 290.739 121.3 291.499 121.16C292.259 121.02 293.069 121.27 293.639 121.79" stroke="#010100" stroke-linecap="round" stroke-linejoin="round"/>
<path d="M215.961 124.26C216.551 120.81 215.861 117.16 214.031 114.18C212.211 111.2 208.821 110.13 206.151 107.87C201.751 104.13 197.561 100.22 193.171 96.48C192.261 97.02 191.821 98.14 191.821 99.2C191.821 100.26 192.191 101.28 192.551 102.27C193.911 106 195.271 109.72 196.631 113.45C193.521 114.19 190.491 114.44 187.381 115.19C184.581 114.86 182.161 114.55 179.361 114.23C176.671 111.17 173.441 108.48 170.751 105.42C170.231 104.83 169.691 104.22 168.981 103.87C168.271 103.52 167.341 103.5 166.761 104.03C167.661 105.99 168.451 108.02 169.351 109.98C167.541 108.75 165.561 107.32 163.761 106.09C163.131 105.66 162.171 105.22 161.411 105.29C160.651 105.36 159.931 105.75 159.461 106.34C160.921 108.18 162.341 109.88 163.801 111.72C162.541 111.68 161.101 111.59 159.841 111.55C158.671 111.51 157.221 112.27 156.971 113.41C160.121 114.24 162.951 115.69 165.661 117.49C164.401 117.74 163.061 117.9 161.791 118.15C160.961 118.32 160.101 118.97 160.081 119.82C173.341 121.8 185.661 129.11 194.021 139.59L219.561 134.64C218.561 131.04 217.311 127.74 215.921 124.27L215.961 124.26Z" fill="#F5747B"/>
<path d="M187.521 114.95C191.471 115.59 195.421 116.23 199.371 116.87" stroke="#010100" stroke-linecap="round" stroke-linejoin="round"/>
<path d="M168.791 109.02C170.881 113.4 172.971 117.78 175.071 122.16" stroke="#010100" stroke-linecap="round" stroke-linejoin="round"/>
<path d="M163.17 111.02C166.54 114.77 169.92 118.52 173.29 122.27" stroke="#010100" stroke-linecap="round" stroke-linejoin="round"/>
<path d="M164.961 116.94C167.231 118.38 169.401 119.99 171.441 121.74" stroke="#010100" stroke-linecap="round" stroke-linejoin="round"/>
<path d="M265.01 139.39C265.32 140.9 265.64 142.27 265.95 143.77C253.61 148.5 240.86 152.69 228.52 157.42C226.05 146.27 223.55 135.3 221.08 124.15C210.31 129.02 199.67 133.06 188.9 137.93C191.69 149.79 194.45 162.19 197.24 174.04C199 181.53 205.9 187.4 212.98 190.41C220.07 193.42 228.4 193.33 235.43 190.18C217.35 207 193.17 218.16 168.68 221.27L191.55 261.85C204.85 261.89 217.33 254.62 226.49 244.98C235.65 235.34 242.01 223.44 248.26 211.7C260.83 188.09 273.39 164.47 285.96 140.86C279.04 140.44 271.93 139.79 265 139.37L265.01 139.39Z" fill="#34BBAA"/>
<path d="M265.951 143.77L269.381 166.97L260.711 162.87L259.641 187.03" stroke="#010100" stroke-linecap="round" stroke-linejoin="round"/>
<path d="M228.499 156.87C227.759 157.85 227.019 158.82 226.279 159.8" stroke="#010100" stroke-linecap="round" stroke-linejoin="round"/>
<path d="M191.35 145.22C201.69 140.73 212.04 136.23 222.38 131.74" stroke="#010100" stroke-linecap="round" stroke-linejoin="round"/>
<path d="M234.48 191.01C248.01 178.18 258.67 162.33 265.43 144.96" stroke="#010100" stroke-linecap="round" stroke-linejoin="round"/>
<path d="M240.06 217.91C240.06 216.81 239.17 215.92 238.07 215.92C236.97 215.92 236.08 216.81 236.08 217.91C236.08 219.01 236.97 219.9 238.07 219.9C239.17 219.9 240.06 219.01 240.06 217.91Z" stroke="#010100" stroke-linecap="round" stroke-linejoin="round"/>
<path d="M229.32 231.15C229.32 230.05 228.43 229.16 227.33 229.16C226.23 229.16 225.34 230.05 225.34 231.15C225.34 232.25 226.23 233.14 227.33 233.14C228.43 233.14 229.32 232.25 229.32 231.15Z" stroke="#010100" stroke-linecap="round" stroke-linejoin="round"/>
<path d="M178.039 221.71C184.979 234.21 191.919 246.71 198.869 259.21" stroke="#010100" stroke-linecap="round" stroke-linejoin="round"/>
<path d="M406.86 204.18C419.82 199 433.39 194.38 446.35 189.19C442.69 178.02 439.77 166.77 436.11 155.6C421.8 159.87 406.92 164.48 392.61 168.75C382.87 159.58 373.04 151.08 361.39 144.5C354.42 140.56 346.43 138.27 338.43 138.5C339 136.49 339.48 134.54 340.04 132.53C333.89 134.1 327.46 136.36 321.32 137.93C325.36 164.3 331.3 190.38 339.06 215.91C343.26 229.73 349.97 242.72 358.57 254.32C367.18 265.92 378.94 275.67 392.88 279.44L415.7 215.97C404.31 215.76 393.59 211.38 384.17 204.99C391.41 206.9 399.9 206.94 406.86 204.16V204.18Z" fill="#34BBAA"/>
<path d="M338.43 138.5L328.83 164.2L338.44 160.56L331.9 183.82" stroke="#010100" stroke-linecap="round" stroke-linejoin="round"/>
<path d="M345.871 138.77C344.371 140.88 343.771 143.53 343.731 146.12C343.691 148.71 344.171 151.28 344.651 153.83C345.361 157.59 346.061 161.34 346.771 165.1C350.231 183.49 367.661 197.33 384.421 205.65" stroke="#010100" stroke-linecap="round" stroke-linejoin="round"/>
<path d="M392.631 168.35C392.211 169.36 391.791 170.36 391.371 171.37" stroke="#010100" stroke-linecap="round" stroke-linejoin="round"/>
<path d="M429.939 157.51C433.099 168.52 436.269 179.53 439.429 190.54" stroke="#010100" stroke-linecap="round" stroke-linejoin="round"/>
<path d="M385.43 274.5C391.25 259.17 397.07 243.85 402.89 228.52" stroke="#010100" stroke-linecap="round" stroke-linejoin="round"/>
</g>
<defs>
<filter id="filter0_i_1494_1050" x="104.355" y="116.156" width="394.467" height="270.393" filterUnits="userSpaceOnUse" color-interpolation-filters="sRGB">
<feFlood flood-opacity="0" result="BackgroundImageFix"/>
<feBlend mode="normal" in="SourceGraphic" in2="BackgroundImageFix" result="shape"/>
<feColorMatrix in="SourceAlpha" type="matrix" values="0 0 0 0 0 0 0 0 0 0 0 0 0 0 0 0 0 0 127 0" result="hardAlpha"/>
<feOffset dx="10" dy="-10"/>
<feGaussianBlur stdDeviation="5"/>
<feComposite in2="hardAlpha" operator="arithmetic" k2="-1" k3="1"/>
<feColorMatrix type="matrix" values="0 0 0 0 0 0 0 0 0 0 0 0 0 0 0 0 0 0 0.25 0"/>
<feBlend mode="normal" in2="shape" result="effect1_innerShadow_1494_1050"/>
</filter>
<filter id="filter1_dd_1494_1050" x="283" y="377" width="139.672" height="133.904" filterUnits="userSpaceOnUse" color-interpolation-filters="sRGB">
<feFlood flood-opacity="0" result="BackgroundImageFix"/>
<feColorMatrix in="SourceAlpha" type="matrix" values="0 0 0 0 0 0 0 0 0 0 0 0 0 0 0 0 0 0 127 0" result="hardAlpha"/>
<feOffset dy="4"/>
<feGaussianBlur stdDeviation="5"/>
<feComposite in2="hardAlpha" operator="out"/>
<feColorMatrix type="matrix" values="0 0 0 0 0 0 0 0 0 0 0 0 0 0 0 0 0 0 0.08 0"/>
<feBlend mode="normal" in2="BackgroundImageFix" result="effect1_dropShadow_1494_1050"/>
<feColorMatrix in="SourceAlpha" type="matrix" values="0 0 0 0 0 0 0 0 0 0 0 0 0 0 0 0 0 0 127 0" result="hardAlpha"/>
<feOffset dy="4"/>
<feGaussianBlur stdDeviation="2"/>
<feComposite in2="hardAlpha" operator="out"/>
<feColorMatrix type="matrix" values="0 0 0 0 0 0 0 0 0 0 0 0 0 0 0 0 0 0 0.04 0"/>
<feBlend mode="normal" in2="effect1_dropShadow_1494_1050" result="effect2_dropShadow_1494_1050"/>
<feBlend mode="normal" in="SourceGraphic" in2="effect2_dropShadow_1494_1050" result="shape"/>
</filter>
<filter id="filter2_dd_1494_1050" x="56.4277" y="104.809" width="119.09" height="76.2136" filterUnits="userSpaceOnUse" color-interpolation-filters="sRGB">
<feFlood flood-opacity="0" result="BackgroundImageFix"/>
<feColorMatrix in="SourceAlpha" type="matrix" values="0 0 0 0 0 0 0 0 0 0 0 0 0 0 0 0 0 0 127 0" result="hardAlpha"/>
<feOffset dy="4"/>
<feGaussianBlur stdDeviation="5"/>
<feComposite in2="hardAlpha" operator="out"/>
<feColorMatrix type="matrix" values="0 0 0 0 0 0 0 0 0 0 0 0 0 0 0 0 0 0 0.08 0"/>
<feBlend mode="normal" in2="BackgroundImageFix" result="effect1_dropShadow_1494_1050"/>
<feColorMatrix in="SourceAlpha" type="matrix" values="0 0 0 0 0 0 0 0 0 0 0 0 0 0 0 0 0 0 127 0" result="hardAlpha"/>
<feOffset dy="4"/>
<feGaussianBlur stdDeviation="2"/>
<feComposite in2="hardAlpha" operator="out"/>
<feColorMatrix type="matrix" values="0 0 0 0 0 0 0 0 0 0 0 0 0 0 0 0 0 0 0.04 0"/>
<feBlend mode="normal" in2="effect1_dropShadow_1494_1050" result="effect2_dropShadow_1494_1050"/>
<feBlend mode="normal" in="SourceGraphic" in2="effect2_dropShadow_1494_1050" result="shape"/>
</filter>
<filter id="filter3_dd_1494_1050" x="7" y="193" width="284.551" height="293.805" filterUnits="userSpaceOnUse" color-interpolation-filters="sRGB">
<feFlood flood-opacity="0" result="BackgroundImageFix"/>
<feColorMatrix in="SourceAlpha" type="matrix" values="0 0 0 0 0 0 0 0 0 0 0 0 0 0 0 0 0 0 127 0" result="hardAlpha"/>
<feOffset dy="24"/>
<feGaussianBlur stdDeviation="30"/>
<feComposite in2="hardAlpha" operator="out"/>
<feColorMatrix type="matrix" values="0 0 0 0 0 0 0 0 0 0 0 0 0 0 0 0 0 0 0.12 0"/>
<feBlend mode="normal" in2="BackgroundImageFix" result="effect1_dropShadow_1494_1050"/>
<feColorMatrix in="SourceAlpha" type="matrix" values="0 0 0 0 0 0 0 0 0 0 0 0 0 0 0 0 0 0 127 0" result="hardAlpha"/>
<feOffset dy="8"/>
<feGaussianBlur stdDeviation="10"/>
<feComposite in2="hardAlpha" operator="out"/>
<feColorMatrix type="matrix" values="0 0 0 0 0 0 0 0 0 0 0 0 0 0 0 0 0 0 0.06 0"/>
<feBlend mode="normal" in2="effect1_dropShadow_1494_1050" result="effect2_dropShadow_1494_1050"/>
<feBlend mode="normal" in="SourceGraphic" in2="effect2_dropShadow_1494_1050" result="shape"/>
</filter>
<filter id="filter4_dd_1494_1050" x="470" y="28.9507" width="136.721" height="183.1" filterUnits="userSpaceOnUse" color-interpolation-filters="sRGB">
<feFlood flood-opacity="0" result="BackgroundImageFix"/>
<feColorMatrix in="SourceAlpha" type="matrix" values="0 0 0 0 0 0 0 0 0 0 0 0 0 0 0 0 0 0 127 0" result="hardAlpha"/>
<feOffset dy="4"/>
<feGaussianBlur stdDeviation="5"/>
<feComposite in2="hardAlpha" operator="out"/>
<feColorMatrix type="matrix" values="0 0 0 0 0 0 0 0 0 0 0 0 0 0 0 0 0 0 0.08 0"/>
<feBlend mode="normal" in2="BackgroundImageFix" result="effect1_dropShadow_1494_1050"/>
<feColorMatrix in="SourceAlpha" type="matrix" values="0 0 0 0 0 0 0 0 0 0 0 0 0 0 0 0 0 0 127 0" result="hardAlpha"/>
<feOffset dy="4"/>
<feGaussianBlur stdDeviation="2"/>
<feComposite in2="hardAlpha" operator="out"/>
<feColorMatrix type="matrix" values="0 0 0 0 0 0 0 0 0 0 0 0 0 0 0 0 0 0 0.04 0"/>
<feBlend mode="normal" in2="effect1_dropShadow_1494_1050" result="effect2_dropShadow_1494_1050"/>
<feBlend mode="normal" in="SourceGraphic" in2="effect2_dropShadow_1494_1050" result="shape"/>
</filter>
<filter id="filter5_dd_1494_1050" x="0" y="393.951" width="183.416" height="105.68" filterUnits="userSpaceOnUse" color-interpolation-filters="sRGB">
<feFlood flood-opacity="0" result="BackgroundImageFix"/>
<feColorMatrix in="SourceAlpha" type="matrix" values="0 0 0 0 0 0 0 0 0 0 0 0 0 0 0 0 0 0 127 0" result="hardAlpha"/>
<feOffset dy="4"/>
<feGaussianBlur stdDeviation="5"/>
<feComposite in2="hardAlpha" operator="out"/>
<feColorMatrix type="matrix" values="0 0 0 0 0 0 0 0 0 0 0 0 0 0 0 0 0 0 0.08 0"/>
<feBlend mode="normal" in2="BackgroundImageFix" result="effect1_dropShadow_1494_1050"/>
<feColorMatrix in="SourceAlpha" type="matrix" values="0 0 0 0 0 0 0 0 0 0 0 0 0 0 0 0 0 0 127 0" result="hardAlpha"/>
<feOffset dy="4"/>
<feGaussianBlur stdDeviation="2"/>
<feComposite in2="hardAlpha" operator="out"/>
<feColorMatrix type="matrix" values="0 0 0 0 0 0 0 0 0 0 0 0 0 0 0 0 0 0 0.04 0"/>
<feBlend mode="normal" in2="effect1_dropShadow_1494_1050" result="effect2_dropShadow_1494_1050"/>
<feBlend mode="normal" in="SourceGraphic" in2="effect2_dropShadow_1494_1050" result="shape"/>
</filter>
<filter id="filter6_dd_1494_1050" x="409" y="330.951" width="197.898" height="105.68" filterUnits="userSpaceOnUse" color-interpolation-filters="sRGB">
<feFlood flood-opacity="0" result="BackgroundImageFix"/>
<feColorMatrix in="SourceAlpha" type="matrix" values="0 0 0 0 0 0 0 0 0 0 0 0 0 0 0 0 0 0 127 0" result="hardAlpha"/>
<feOffset dy="4"/>
<feGaussianBlur stdDeviation="5"/>
<feComposite in2="hardAlpha" operator="out"/>
<feColorMatrix type="matrix" values="0 0 0 0 0 0 0 0 0 0 0 0 0 0 0 0 0 0 0.08 0"/>
<feBlend mode="normal" in2="BackgroundImageFix" result="effect1_dropShadow_1494_1050"/>
<feColorMatrix in="SourceAlpha" type="matrix" values="0 0 0 0 0 0 0 0 0 0 0 0 0 0 0 0 0 0 127 0" result="hardAlpha"/>
<feOffset dy="4"/>
<feGaussianBlur stdDeviation="2"/>
<feComposite in2="hardAlpha" operator="out"/>
<feColorMatrix type="matrix" values="0 0 0 0 0 0 0 0 0 0 0 0 0 0 0 0 0 0 0.04 0"/>
<feBlend mode="normal" in2="effect1_dropShadow_1494_1050" result="effect2_dropShadow_1494_1050"/>
<feBlend mode="normal" in="SourceGraphic" in2="effect2_dropShadow_1494_1050" result="shape"/>
</filter>
<filter id="filter7_dd_1494_1050" x="256" y="33" width="196.316" height="75.507" filterUnits="userSpaceOnUse" color-interpolation-filters="sRGB">
<feFlood flood-opacity="0" result="BackgroundImageFix"/>
<feColorMatrix in="SourceAlpha" type="matrix" values="0 0 0 0 0 0 0 0 0 0 0 0 0 0 0 0 0 0 127 0" result="hardAlpha"/>
<feOffset dy="4"/>
<feGaussianBlur stdDeviation="5"/>
<feComposite in2="hardAlpha" operator="out"/>
<feColorMatrix type="matrix" values="0 0 0 0 0 0 0 0 0 0 0 0 0 0 0 0 0 0 0.08 0"/>
<feBlend mode="normal" in2="BackgroundImageFix" result="effect1_dropShadow_1494_1050"/>
<feColorMatrix in="SourceAlpha" type="matrix" values="0 0 0 0 0 0 0 0 0 0 0 0 0 0 0 0 0 0 127 0" result="hardAlpha"/>
<feOffset dy="4"/>
<feGaussianBlur stdDeviation="2"/>
<feComposite in2="hardAlpha" operator="out"/>
<feColorMatrix type="matrix" values="0 0 0 0 0 0 0 0 0 0 0 0 0 0 0 0 0 0 0.04 0"/>
<feBlend mode="normal" in2="effect1_dropShadow_1494_1050" result="effect2_dropShadow_1494_1050"/>
<feBlend mode="normal" in="SourceGraphic" in2="effect2_dropShadow_1494_1050" result="shape"/>
</filter>
<filter id="filter8_dd_1494_1050" x="350.811" y="320.34" width="75.3496" height="93.8118" filterUnits="userSpaceOnUse" color-interpolation-filters="sRGB">
<feFlood flood-opacity="0" result="BackgroundImageFix"/>
<feColorMatrix in="SourceAlpha" type="matrix" values="0 0 0 0 0 0 0 0 0 0 0 0 0 0 0 0 0 0 127 0" result="hardAlpha"/>
<feOffset dy="4"/>
<feGaussianBlur stdDeviation="5"/>
<feComposite in2="hardAlpha" operator="out"/>
<feColorMatrix type="matrix" values="0 0 0 0 0 0 0 0 0 0 0 0 0 0 0 0 0 0 0.08 0"/>
<feBlend mode="normal" in2="BackgroundImageFix" result="effect1_dropShadow_1494_1050"/>
<feColorMatrix in="SourceAlpha" type="matrix" values="0 0 0 0 0 0 0 0 0 0 0 0 0 0 0 0 0 0 127 0" result="hardAlpha"/>
<feOffset dy="4"/>
<feGaussianBlur stdDeviation="2"/>
<feComposite in2="hardAlpha" operator="out"/>
<feColorMatrix type="matrix" values="0 0 0 0 0 0 0 0 0 0 0 0 0 0 0 0 0 0 0.04 0"/>
<feBlend mode="normal" in2="effect1_dropShadow_1494_1050" result="effect2_dropShadow_1494_1050"/>
<feBlend mode="normal" in="SourceGraphic" in2="effect2_dropShadow_1494_1050" result="shape"/>
</filter>
<filter id="filter9_d_1494_1050" x="193.195" y="426.65" width="77.4551" height="68.7411" filterUnits="userSpaceOnUse" color-interpolation-filters="sRGB">
<feFlood flood-opacity="0" result="BackgroundImageFix"/>
<feColorMatrix in="SourceAlpha" type="matrix" values="0 0 0 0 0 0 0 0 0 0 0 0 0 0 0 0 0 0 127 0" result="hardAlpha"/>
<feOffset/>
<feGaussianBlur stdDeviation="2"/>
<feComposite in2="hardAlpha" operator="out"/>
<feColorMatrix type="matrix" values="0 0 0 0 0 0 0 0 0 0 0 0 0 0 0 0 0 0 0.25 0"/>
<feBlend mode="normal" in2="BackgroundImageFix" result="effect1_dropShadow_1494_1050"/>
<feBlend mode="normal" in="SourceGraphic" in2="effect1_dropShadow_1494_1050" result="shape"/>
</filter>
<filter id="filter10_dd_1494_1050" x="209.66" y="205.56" width="191.82" height="257.37" filterUnits="userSpaceOnUse" color-interpolation-filters="sRGB">
<feFlood flood-opacity="0" result="BackgroundImageFix"/>
<feColorMatrix in="SourceAlpha" type="matrix" values="0 0 0 0 0 0 0 0 0 0 0 0 0 0 0 0 0 0 127 0" result="hardAlpha"/>
<feOffset dy="4"/>
<feGaussianBlur stdDeviation="5"/>
<feComposite in2="hardAlpha" operator="out"/>
<feColorMatrix type="matrix" values="0 0 0 0 0 0 0 0 0 0 0 0 0 0 0 0 0 0 0.08 0"/>
<feBlend mode="normal" in2="BackgroundImageFix" result="effect1_dropShadow_1494_1050"/>
<feColorMatrix in="SourceAlpha" type="matrix" values="0 0 0 0 0 0 0 0 0 0 0 0 0 0 0 0 0 0 127 0" result="hardAlpha"/>
<feOffset dy="4"/>
<feGaussianBlur stdDeviation="2"/>
<feComposite in2="hardAlpha" operator="out"/>
<feColorMatrix type="matrix" values="0 0 0 0 0 0 0 0 0 0 0 0 0 0 0 0 0 0 0.04 0"/>
<feBlend mode="normal" in2="effect1_dropShadow_1494_1050" result="effect2_dropShadow_1494_1050"/>
<feBlend mode="normal" in="SourceGraphic" in2="effect2_dropShadow_1494_1050" result="shape"/>
</filter>
<linearGradient id="paint0_linear_1494_1050" x1="223.859" y1="143.7" x2="364.359" y2="377.7" gradientUnits="userSpaceOnUse">
<stop stop-color="#5280FE"/>
<stop offset="0.197917" stop-color="#B973A0"/>
<stop offset="0.473958" stop-color="#F9A11D"/>
<stop offset="1" stop-color="#00C9B7"/>
</linearGradient>
<clipPath id="clip0_1494_1050">
<rect width="33" height="29" fill="white" transform="translate(445.34 365.291)"/>
</clipPath>
<clipPath id="clip1_1494_1050">
<rect width="333.83" height="405.4" fill="white" transform="translate(157 89)"/>
</clipPath>
</defs>
</svg>
