<svg width="73" height="73" viewBox="0 0 73 73" fill="none" xmlns="http://www.w3.org/2000/svg">
<rect width="73" height="73" rx="36.5" fill="#D8CC1C"/>
<path d="M23.0289 16H49.9853C50.5058 16.1529 51.0329 16.2875 51.5076 16.5633C53.2241 17.5628 53.9978 19.0711 53.9978 20.993C54 31.1928 53.9978 41.3927 54 51.5925C54 52.019 53.9825 52.4434 53.9389 52.8688C53.7108 55.0815 51.62 56.9896 49.3512 56.9928C40.7892 57.0024 32.2282 57.0024 23.6662 56.9928C21.3931 56.9906 19.3012 55.0879 19.0818 52.8688C18.9432 51.4717 19.0229 50.0714 19.0218 48.6722C19.0131 39.4461 19.0185 30.219 19.0163 20.993C19.0163 19.5863 19.4376 18.3442 20.4677 17.3319C21.1814 16.6307 22.061 16.233 23.03 16H23.0289ZM30.4353 29.7081C28.8563 29.7081 27.2772 29.7049 25.6981 29.7092C25.0532 29.7113 24.5414 30.017 24.4356 30.5771C24.285 31.3767 24.2871 32.1998 24.4345 32.9994C24.5359 33.5499 25.1634 33.9283 25.696 33.8748C26.3354 33.8096 26.8036 33.3436 26.8516 32.7257C26.8807 32.3466 27.088 32.1556 27.4736 32.1528C27.8959 32.1506 28.3183 32.1592 28.7395 32.1528C29.0254 32.1485 29.1662 32.2596 29.1651 32.5525C29.1607 34.606 29.1607 36.6594 29.1651 38.7139C29.1651 38.9512 29.0603 39.0656 28.829 39.1361C28.0989 39.3606 27.7748 39.8577 27.8785 40.5525C27.9614 41.1126 28.4885 41.5477 29.1705 41.5658C29.9868 41.5872 30.8042 41.5851 31.6204 41.568C32.3385 41.553 32.8688 41.1147 32.9583 40.5055C33.05 39.8812 32.6888 39.3553 31.9827 39.134C31.747 39.0602 31.6608 38.9405 31.6619 38.7043C31.6673 36.6509 31.6673 34.5974 31.6619 32.5429C31.6619 32.2703 31.7808 32.1538 32.0515 32.1549C32.5142 32.1581 32.9779 32.1624 33.4395 32.1506C33.7669 32.1421 33.9219 32.234 33.9372 32.5985C33.9688 33.3521 34.5581 33.908 35.2292 33.8834C35.92 33.8577 36.4492 33.2965 36.4711 32.5418C36.4853 32.0491 36.4842 31.5552 36.4711 31.0614C36.4482 30.203 35.9287 29.7102 35.0492 29.7092C33.5105 29.706 31.9729 29.7092 30.4342 29.7092L30.4353 29.7081ZM36.5496 44.1954C33.1198 44.1954 29.6911 44.1954 26.2612 44.1965C25.9895 44.1965 25.7134 44.188 25.4482 44.2328C24.7815 44.3472 24.3657 44.8272 24.3646 45.4407C24.3635 46.0522 24.7826 46.5289 25.4439 46.6572C25.589 46.685 25.7407 46.6925 25.8902 46.6925C32.967 46.6946 40.0428 46.6935 47.1196 46.6957C47.3389 46.6957 47.555 46.6775 47.7645 46.6144C48.2949 46.4552 48.6506 45.9859 48.6506 45.4482C48.6506 44.9106 48.2949 44.437 47.77 44.2767C47.5332 44.204 47.2898 44.1944 47.0432 44.1954C43.5457 44.1976 40.0482 44.1965 36.5507 44.1965L36.5496 44.1954ZM36.5147 51.8148C39.7536 51.8148 42.9925 51.8148 46.2313 51.8148C46.5991 51.8148 46.9668 51.8277 47.3335 51.8095C48.1759 51.7678 48.7467 51.1435 48.643 50.3974C48.5535 49.7539 48.0079 49.3189 47.2353 49.3189C40.0777 49.3146 32.919 49.3157 25.7614 49.3199C25.5879 49.3199 25.4079 49.3531 25.2409 49.4012C24.7236 49.5519 24.3777 50.0083 24.3657 50.5321C24.3537 51.0741 24.6942 51.5519 25.2169 51.724C25.4657 51.8063 25.7221 51.8159 25.983 51.8159C29.4935 51.8138 33.0052 51.8148 36.5158 51.8148H36.5147ZM44.3391 41.5712C45.3321 41.5712 46.3252 41.5872 47.3171 41.5658C48.1006 41.5498 48.6452 41.0217 48.6495 40.3333C48.6528 39.6396 48.1148 39.0912 47.3357 39.0838C45.3507 39.0645 43.3646 39.0699 41.3796 39.0816C40.859 39.0848 40.4269 39.2965 40.1803 39.7764C39.7449 40.623 40.3603 41.5434 41.4025 41.5669C42.3813 41.5894 43.3602 41.5723 44.3402 41.5712H44.3391ZM44.3292 36.8582C45.3212 36.8582 46.3132 36.8625 47.3051 36.8572C48.081 36.8518 48.6408 36.343 48.6495 35.6514C48.6583 34.9267 48.1192 34.42 47.3029 34.4178C45.3321 34.4114 43.3624 34.4104 41.3916 34.4178C40.5742 34.421 40.0395 34.9245 40.0482 35.6525C40.057 36.343 40.6179 36.8518 41.3938 36.8572C42.3726 36.8636 43.3504 36.8582 44.3292 36.8582ZM44.3423 32.1506C45.3343 32.1506 46.3263 32.157 47.3182 32.1485C48.1116 32.141 48.6452 31.6482 48.6495 30.9406C48.6539 30.2308 48.0908 29.7113 47.2909 29.7092C45.3343 29.7049 43.3777 29.7049 41.421 29.7092C40.6113 29.7113 40.0515 30.2137 40.0493 30.9256C40.0471 31.6482 40.5873 32.1431 41.4079 32.1495C42.3857 32.157 43.3646 32.1517 44.3434 32.1506H44.3423Z" fill="white"/>
</svg>
