<svg width="74" height="73" viewBox="0 0 74 73" fill="none" xmlns="http://www.w3.org/2000/svg">
<rect x="0.5" width="73" height="73" rx="36.5" fill="#FFAE0E"/>
<path d="M37.3938 48.5028C32.4577 48.5028 27.5203 48.4567 22.5854 48.5189C19.1005 48.5625 15.5932 46.0359 15.0393 41.9598C15.002 41.6848 15.0045 41.4022 15.0045 41.1234C15.002 35.8923 14.9958 30.6612 15.0045 25.4301C15.0107 21.6017 18.0276 18.3707 21.8411 18.0608C22.3689 18.0185 22.8941 18.0035 23.4218 18.0035C32.9381 18.0035 42.4531 17.9923 51.9694 18.0098C55.1469 18.016 57.5465 19.4025 59.0339 22.2452C59.5504 23.2334 59.7881 24.3063 59.7869 25.4301C59.7819 30.6612 59.7931 35.8923 59.7819 41.1234C59.7732 45.1809 56.4525 48.4928 52.3889 48.5015C47.3905 48.5115 42.3922 48.504 37.3938 48.504V48.5028ZM31.6561 32.9078C31.6561 34.7784 31.6574 36.2993 31.6561 37.8202C31.6537 40.6928 34.3682 41.6213 36.0932 40.6206C38.8425 39.0238 41.6006 37.4406 44.3549 35.85C44.6524 35.6783 44.9249 35.4766 45.1502 35.2128C46.3724 33.7802 46.0414 31.7291 44.3761 30.7297C42.5017 29.6033 40.5962 28.5292 38.7019 27.4352C37.7747 26.9 36.8624 26.335 35.909 25.8521C34.067 24.9186 31.9262 26.0923 31.7221 28.1421C31.5528 29.8435 31.7059 31.5524 31.6574 32.9078H31.6561Z" fill="white"/>
<path d="M41.5926 56.482C38.4886 56.482 35.3845 56.482 32.2792 56.482C31.6419 56.482 31.6419 56.4845 31.6382 57.1317C31.6382 57.1939 31.6382 57.2561 31.6382 57.3184C31.6195 58.2755 30.9773 58.9861 30.121 58.9998C29.2709 59.0135 28.5877 58.3165 28.5329 57.3806C28.4981 56.7807 28.1786 56.4807 27.5745 56.4807C26.3175 56.4807 25.0604 56.4894 23.8034 56.4758C22.9272 56.4658 22.336 56.0862 22.102 55.4253C21.7473 54.4246 22.4555 53.4016 23.547 53.3854C24.9907 53.3642 26.4345 53.3792 27.877 53.3779C28.5254 53.3779 28.5205 53.3767 28.5317 52.7481C28.5354 52.5316 28.5404 52.3113 28.5864 52.1022C28.7669 51.272 29.4004 50.8053 30.243 50.8638C30.9748 50.9148 31.5598 51.5322 31.6357 52.3125C31.6681 52.6461 31.4826 53.068 31.744 53.2933C32.0079 53.5223 32.431 53.3742 32.7832 53.3742C38.852 53.3804 44.9207 53.3816 50.9894 53.3742C51.6204 53.3742 52.1531 53.5273 52.5166 54.0786C53.099 54.9635 52.6298 56.1646 51.5968 56.3973C51.313 56.4621 51.0118 56.4758 50.7193 56.477C47.6775 56.482 44.6344 56.4807 41.5926 56.4807V56.482Z" fill="white"/>
<path d="M34.5692 33.2776C34.5692 31.8189 34.5667 30.3602 34.5704 28.9027C34.5717 28.4485 34.6227 28.4174 35.0098 28.6401C37.55 30.1026 40.0865 31.5737 42.6305 33.0299C42.9939 33.2377 42.9591 33.3448 42.6218 33.5389C40.0915 34.9889 37.5687 36.4513 35.0421 37.9063C34.6102 38.1552 34.5717 38.1291 34.5704 37.6063C34.5679 36.1638 34.5704 34.7201 34.5704 33.2776H34.5692Z" fill="white"/>
</svg>
